<?xml version="1.0" encoding="utf-8"?>
<!-- Generator: Adobe Illustrator 24.1.2, SVG Export Plug-In . SVG Version: 6.00 Build 0)  -->
<svg version="1.1" id="Layer_1" xmlns="http://www.w3.org/2000/svg" xmlns:xlink="http://www.w3.org/1999/xlink" x="0px" y="0px"
	 viewBox="0 0 300 150" style="enable-background:new 0 0 300 150;" xml:space="preserve">
<style type="text/css">
	.st0{clip-path:url(#SVGID_2_);fill:#F90203;}
	.st1{clip-path:url(#SVGID_2_);}
	.st2{fill:none;stroke:#6D0713;stroke-width:2.2353;stroke-linecap:square;stroke-miterlimit:10;stroke-dasharray:0,4.1912;}
	.st3{clip-path:url(#SVGID_2_);fill:none;}
	.st4{opacity:0.9;clip-path:url(#SVGID_2_);fill:url(#SVGID_3_);}
</style>
<g>
	<defs>
		<rect id="SVGID_1_" width="300" height="150"/>
	</defs>
	<clipPath id="SVGID_2_">
		<use xlink:href="#SVGID_1_"  style="overflow:visible;"/>
	</clipPath>
	<rect class="st0" width="300" height="150"/>
	<g class="st1">
		<g>
			<line class="st2" x1="824.8" y1="-63.5" x2="545.9" y2="155.3"/>
		</g>
		<g>
			<line class="st2" x1="822" y1="-63.5" x2="543.1" y2="155.3"/>
		</g>
		<g>
			<line class="st2" x1="819.2" y1="-63.5" x2="540.3" y2="155.3"/>
		</g>
		<g>
			<line class="st2" x1="816.4" y1="-63.5" x2="537.5" y2="155.3"/>
		</g>
		<g>
			<line class="st2" x1="813.6" y1="-63.5" x2="534.7" y2="155.3"/>
		</g>
		<g>
			<line class="st2" x1="810.8" y1="-63.5" x2="531.9" y2="155.3"/>
		</g>
		<g>
			<line class="st2" x1="808" y1="-63.5" x2="529.1" y2="155.3"/>
		</g>
		<g>
			<line class="st2" x1="805.3" y1="-63.5" x2="526.3" y2="155.3"/>
		</g>
		<g>
			<line class="st2" x1="802.5" y1="-63.5" x2="523.5" y2="155.3"/>
		</g>
		<g>
			<line class="st2" x1="799.7" y1="-63.5" x2="520.7" y2="155.3"/>
		</g>
		<g>
			<line class="st2" x1="796.9" y1="-63.5" x2="518" y2="155.3"/>
		</g>
		<g>
			<line class="st2" x1="794.1" y1="-63.5" x2="515.2" y2="155.3"/>
		</g>
		<g>
			<line class="st2" x1="791.3" y1="-63.5" x2="512.4" y2="155.3"/>
		</g>
		<g>
			<line class="st2" x1="788.5" y1="-63.5" x2="509.6" y2="155.3"/>
		</g>
		<g>
			<line class="st2" x1="785.7" y1="-63.5" x2="506.8" y2="155.3"/>
		</g>
		<g>
			<line class="st2" x1="782.9" y1="-63.5" x2="504" y2="155.3"/>
		</g>
		<g>
			<line class="st2" x1="780.1" y1="-63.5" x2="501.2" y2="155.3"/>
		</g>
		<g>
			<line class="st2" x1="777.3" y1="-63.5" x2="498.4" y2="155.3"/>
		</g>
		<g>
			<line class="st2" x1="774.5" y1="-63.5" x2="495.6" y2="155.3"/>
		</g>
		<g>
			<line class="st2" x1="771.7" y1="-63.5" x2="492.8" y2="155.3"/>
		</g>
		<g>
			<line class="st2" x1="768.9" y1="-63.5" x2="490" y2="155.3"/>
		</g>
		<g>
			<line class="st2" x1="766.1" y1="-63.5" x2="487.2" y2="155.3"/>
		</g>
		<g>
			<line class="st2" x1="763.3" y1="-63.5" x2="484.4" y2="155.3"/>
		</g>
		<g>
			<line class="st2" x1="760.6" y1="-63.5" x2="481.6" y2="155.3"/>
		</g>
		<g>
			<line class="st2" x1="757.8" y1="-63.5" x2="478.8" y2="155.3"/>
		</g>
		<g>
			<line class="st2" x1="755" y1="-63.5" x2="476" y2="155.3"/>
		</g>
		<g>
			<line class="st2" x1="752.2" y1="-63.5" x2="473.3" y2="155.3"/>
		</g>
		<g>
			<line class="st2" x1="749.4" y1="-63.5" x2="470.5" y2="155.3"/>
		</g>
		<g>
			<line class="st2" x1="746.6" y1="-63.5" x2="467.7" y2="155.3"/>
		</g>
		<g>
			<line class="st2" x1="743.8" y1="-63.5" x2="464.9" y2="155.3"/>
		</g>
		<g>
			<line class="st2" x1="741" y1="-63.5" x2="462.1" y2="155.3"/>
		</g>
		<g>
			<line class="st2" x1="738.2" y1="-63.5" x2="459.3" y2="155.3"/>
		</g>
		<g>
			<line class="st2" x1="735.4" y1="-63.5" x2="456.5" y2="155.3"/>
		</g>
		<g>
			<line class="st2" x1="732.6" y1="-63.5" x2="453.7" y2="155.3"/>
		</g>
		<g>
			<line class="st2" x1="729.8" y1="-63.5" x2="450.9" y2="155.3"/>
		</g>
		<g>
			<line class="st2" x1="727" y1="-63.5" x2="448.1" y2="155.3"/>
		</g>
		<g>
			<line class="st2" x1="724.2" y1="-63.5" x2="445.3" y2="155.3"/>
		</g>
		<g>
			<line class="st2" x1="721.4" y1="-63.5" x2="442.5" y2="155.3"/>
		</g>
		<g>
			<line class="st2" x1="718.6" y1="-63.5" x2="439.7" y2="155.3"/>
		</g>
		<g>
			<line class="st2" x1="715.8" y1="-63.5" x2="436.9" y2="155.3"/>
		</g>
		<g>
			<line class="st2" x1="713.1" y1="-63.5" x2="434.1" y2="155.3"/>
		</g>
		<g>
			<line class="st2" x1="710.3" y1="-63.5" x2="431.3" y2="155.3"/>
		</g>
		<g>
			<line class="st2" x1="707.5" y1="-63.5" x2="428.5" y2="155.3"/>
		</g>
		<g>
			<line class="st2" x1="704.7" y1="-63.5" x2="425.8" y2="155.3"/>
		</g>
		<g>
			<line class="st2" x1="701.9" y1="-63.5" x2="423" y2="155.3"/>
		</g>
		<g>
			<line class="st2" x1="699.1" y1="-63.5" x2="420.2" y2="155.3"/>
		</g>
		<g>
			<line class="st2" x1="696.3" y1="-63.5" x2="417.4" y2="155.3"/>
		</g>
		<g>
			<line class="st2" x1="693.5" y1="-63.5" x2="414.6" y2="155.3"/>
		</g>
		<g>
			<line class="st2" x1="690.7" y1="-63.5" x2="411.8" y2="155.3"/>
		</g>
		<g>
			<line class="st2" x1="687.9" y1="-63.5" x2="409" y2="155.3"/>
		</g>
		<g>
			<line class="st2" x1="685.1" y1="-63.5" x2="406.2" y2="155.3"/>
		</g>
		<g>
			<line class="st2" x1="682.3" y1="-63.5" x2="403.4" y2="155.3"/>
		</g>
		<g>
			<line class="st2" x1="679.5" y1="-63.5" x2="400.6" y2="155.3"/>
		</g>
		<g>
			<line class="st2" x1="676.7" y1="-63.5" x2="397.8" y2="155.3"/>
		</g>
		<g>
			<line class="st2" x1="673.9" y1="-63.5" x2="395" y2="155.3"/>
		</g>
		<g>
			<line class="st2" x1="671.1" y1="-63.5" x2="392.2" y2="155.3"/>
		</g>
		<g>
			<line class="st2" x1="668.4" y1="-63.5" x2="389.4" y2="155.3"/>
		</g>
		<g>
			<line class="st2" x1="665.6" y1="-63.5" x2="386.6" y2="155.3"/>
		</g>
		<g>
			<line class="st2" x1="662.8" y1="-63.5" x2="383.8" y2="155.3"/>
		</g>
		<g>
			<line class="st2" x1="660" y1="-63.5" x2="381.1" y2="155.3"/>
		</g>
		<g>
			<line class="st2" x1="657.2" y1="-63.5" x2="378.3" y2="155.3"/>
		</g>
		<g>
			<line class="st2" x1="654.4" y1="-63.5" x2="375.5" y2="155.3"/>
		</g>
		<g>
			<line class="st2" x1="651.6" y1="-63.5" x2="372.7" y2="155.3"/>
		</g>
		<g>
			<line class="st2" x1="648.8" y1="-63.5" x2="369.9" y2="155.3"/>
		</g>
		<g>
			<line class="st2" x1="646" y1="-63.5" x2="367.1" y2="155.3"/>
		</g>
		<g>
			<line class="st2" x1="643.2" y1="-63.5" x2="364.3" y2="155.3"/>
		</g>
		<g>
			<line class="st2" x1="640.4" y1="-63.5" x2="361.5" y2="155.3"/>
		</g>
		<g>
			<line class="st2" x1="637.6" y1="-63.5" x2="358.7" y2="155.3"/>
		</g>
		<g>
			<line class="st2" x1="634.8" y1="-63.5" x2="355.9" y2="155.3"/>
		</g>
		<g>
			<line class="st2" x1="632" y1="-63.5" x2="353.1" y2="155.3"/>
		</g>
		<g>
			<line class="st2" x1="629.2" y1="-63.5" x2="350.3" y2="155.3"/>
		</g>
		<g>
			<line class="st2" x1="626.4" y1="-63.5" x2="347.5" y2="155.3"/>
		</g>
		<g>
			<line class="st2" x1="623.6" y1="-63.5" x2="344.7" y2="155.3"/>
		</g>
		<g>
			<line class="st2" x1="620.9" y1="-63.5" x2="341.9" y2="155.3"/>
		</g>
		<g>
			<line class="st2" x1="618.1" y1="-63.5" x2="339.1" y2="155.3"/>
		</g>
		<g>
			<line class="st2" x1="615.3" y1="-63.5" x2="336.3" y2="155.3"/>
		</g>
		<g>
			<line class="st2" x1="612.5" y1="-63.5" x2="333.6" y2="155.3"/>
		</g>
		<g>
			<line class="st2" x1="609.7" y1="-63.5" x2="330.8" y2="155.3"/>
		</g>
		<g>
			<line class="st2" x1="606.9" y1="-63.5" x2="328" y2="155.3"/>
		</g>
		<g>
			<line class="st2" x1="604.1" y1="-63.5" x2="325.2" y2="155.3"/>
		</g>
		<g>
			<line class="st2" x1="601.3" y1="-63.5" x2="322.4" y2="155.3"/>
		</g>
		<g>
			<line class="st2" x1="598.5" y1="-63.5" x2="319.6" y2="155.3"/>
		</g>
		<g>
			<line class="st2" x1="595.7" y1="-63.5" x2="316.8" y2="155.3"/>
		</g>
		<g>
			<line class="st2" x1="592.9" y1="-63.5" x2="314" y2="155.3"/>
		</g>
		<g>
			<line class="st2" x1="590.1" y1="-63.5" x2="311.2" y2="155.3"/>
		</g>
		<g>
			<line class="st2" x1="587.3" y1="-63.5" x2="308.4" y2="155.3"/>
		</g>
		<g>
			<line class="st2" x1="584.5" y1="-63.5" x2="305.6" y2="155.3"/>
		</g>
		<g>
			<line class="st2" x1="581.7" y1="-63.5" x2="302.8" y2="155.3"/>
		</g>
		<g>
			<line class="st2" x1="578.9" y1="-63.5" x2="300" y2="155.3"/>
		</g>
		<g>
			<line class="st2" x1="576.2" y1="-63.5" x2="297.2" y2="155.3"/>
		</g>
		<g>
			<line class="st2" x1="573.4" y1="-63.5" x2="294.4" y2="155.3"/>
		</g>
		<g>
			<line class="st2" x1="570.6" y1="-63.5" x2="291.6" y2="155.3"/>
		</g>
		<g>
			<line class="st2" x1="567.8" y1="-63.5" x2="288.9" y2="155.3"/>
		</g>
		<g>
			<line class="st2" x1="565" y1="-63.5" x2="286.1" y2="155.3"/>
		</g>
		<g>
			<line class="st2" x1="562.2" y1="-63.5" x2="283.3" y2="155.3"/>
		</g>
		<g>
			<line class="st2" x1="559.4" y1="-63.5" x2="280.5" y2="155.3"/>
		</g>
		<g>
			<line class="st2" x1="556.6" y1="-63.5" x2="277.7" y2="155.3"/>
		</g>
		<g>
			<line class="st2" x1="553.8" y1="-63.5" x2="274.9" y2="155.3"/>
		</g>
		<g>
			<line class="st2" x1="551" y1="-63.5" x2="272.1" y2="155.3"/>
		</g>
		<g>
			<line class="st2" x1="548.2" y1="-63.5" x2="269.3" y2="155.3"/>
		</g>
		<g>
			<line class="st2" x1="545.4" y1="-63.5" x2="266.5" y2="155.3"/>
		</g>
		<g>
			<line class="st2" x1="542.6" y1="-63.5" x2="263.7" y2="155.3"/>
		</g>
		<g>
			<line class="st2" x1="539.8" y1="-63.5" x2="260.9" y2="155.3"/>
		</g>
		<g>
			<line class="st2" x1="537" y1="-63.5" x2="258.1" y2="155.3"/>
		</g>
		<g>
			<line class="st2" x1="534.2" y1="-63.5" x2="255.3" y2="155.3"/>
		</g>
		<g>
			<line class="st2" x1="531.4" y1="-63.5" x2="252.5" y2="155.3"/>
		</g>
		<g>
			<line class="st2" x1="528.7" y1="-63.5" x2="249.7" y2="155.3"/>
		</g>
		<g>
			<line class="st2" x1="525.9" y1="-63.5" x2="246.9" y2="155.3"/>
		</g>
		<g>
			<line class="st2" x1="523.1" y1="-63.5" x2="244.1" y2="155.3"/>
		</g>
		<g>
			<line class="st2" x1="520.3" y1="-63.5" x2="241.4" y2="155.3"/>
		</g>
		<g>
			<line class="st2" x1="517.5" y1="-63.5" x2="238.6" y2="155.3"/>
		</g>
		<g>
			<line class="st2" x1="514.7" y1="-63.5" x2="235.8" y2="155.3"/>
		</g>
		<g>
			<line class="st2" x1="511.9" y1="-63.5" x2="233" y2="155.3"/>
		</g>
		<g>
			<line class="st2" x1="509.1" y1="-63.5" x2="230.2" y2="155.3"/>
		</g>
		<g>
			<line class="st2" x1="506.3" y1="-63.5" x2="227.4" y2="155.3"/>
		</g>
		<g>
			<line class="st2" x1="503.5" y1="-63.5" x2="224.6" y2="155.3"/>
		</g>
		<g>
			<line class="st2" x1="500.7" y1="-63.5" x2="221.8" y2="155.3"/>
		</g>
		<g>
			<line class="st2" x1="497.9" y1="-63.5" x2="219" y2="155.3"/>
		</g>
		<g>
			<line class="st2" x1="495.1" y1="-63.5" x2="216.2" y2="155.3"/>
		</g>
		<g>
			<line class="st2" x1="492.3" y1="-63.5" x2="213.4" y2="155.3"/>
		</g>
		<g>
			<line class="st2" x1="489.5" y1="-63.5" x2="210.6" y2="155.3"/>
		</g>
		<g>
			<line class="st2" x1="486.7" y1="-63.5" x2="207.8" y2="155.3"/>
		</g>
		<g>
			<line class="st2" x1="484" y1="-63.5" x2="205" y2="155.3"/>
		</g>
		<g>
			<line class="st2" x1="481.2" y1="-63.5" x2="202.2" y2="155.3"/>
		</g>
		<g>
			<line class="st2" x1="478.4" y1="-63.5" x2="199.4" y2="155.3"/>
		</g>
		<g>
			<line class="st2" x1="475.6" y1="-63.5" x2="196.7" y2="155.3"/>
		</g>
		<g>
			<line class="st2" x1="472.8" y1="-63.5" x2="193.9" y2="155.3"/>
		</g>
		<g>
			<line class="st2" x1="470" y1="-63.5" x2="191.1" y2="155.3"/>
		</g>
		<g>
			<line class="st2" x1="467.2" y1="-63.5" x2="188.3" y2="155.3"/>
		</g>
		<g>
			<line class="st2" x1="464.4" y1="-63.5" x2="185.5" y2="155.3"/>
		</g>
		<g>
			<line class="st2" x1="461.6" y1="-63.5" x2="182.7" y2="155.3"/>
		</g>
		<g>
			<line class="st2" x1="458.8" y1="-63.5" x2="179.9" y2="155.3"/>
		</g>
		<g>
			<line class="st2" x1="456" y1="-63.5" x2="177.1" y2="155.3"/>
		</g>
		<g>
			<line class="st2" x1="453.2" y1="-63.5" x2="174.3" y2="155.3"/>
		</g>
		<g>
			<line class="st2" x1="450.4" y1="-63.5" x2="171.5" y2="155.3"/>
		</g>
		<g>
			<line class="st2" x1="447.6" y1="-63.5" x2="168.7" y2="155.3"/>
		</g>
		<g>
			<line class="st2" x1="444.8" y1="-63.5" x2="165.9" y2="155.3"/>
		</g>
		<g>
			<line class="st2" x1="442" y1="-63.5" x2="163.1" y2="155.3"/>
		</g>
		<g>
			<line class="st2" x1="439.2" y1="-63.5" x2="160.3" y2="155.3"/>
		</g>
		<g>
			<line class="st2" x1="436.5" y1="-63.5" x2="157.5" y2="155.3"/>
		</g>
		<g>
			<line class="st2" x1="433.7" y1="-63.5" x2="154.7" y2="155.3"/>
		</g>
		<g>
			<line class="st2" x1="430.9" y1="-63.5" x2="151.9" y2="155.3"/>
		</g>
		<g>
			<line class="st2" x1="428.1" y1="-63.5" x2="149.2" y2="155.3"/>
		</g>
		<g>
			<line class="st2" x1="425.3" y1="-63.5" x2="146.4" y2="155.3"/>
		</g>
		<g>
			<line class="st2" x1="422.5" y1="-63.5" x2="143.6" y2="155.3"/>
		</g>
		<g>
			<line class="st2" x1="419.7" y1="-63.5" x2="140.8" y2="155.3"/>
		</g>
		<g>
			<line class="st2" x1="416.9" y1="-63.5" x2="138" y2="155.3"/>
		</g>
		<g>
			<line class="st2" x1="414.1" y1="-63.5" x2="135.2" y2="155.3"/>
		</g>
		<g>
			<line class="st2" x1="411.3" y1="-63.5" x2="132.4" y2="155.3"/>
		</g>
		<g>
			<line class="st2" x1="408.5" y1="-63.5" x2="129.6" y2="155.3"/>
		</g>
		<g>
			<line class="st2" x1="405.7" y1="-63.5" x2="126.8" y2="155.3"/>
		</g>
		<g>
			<line class="st2" x1="402.9" y1="-63.5" x2="124" y2="155.3"/>
		</g>
		<g>
			<line class="st2" x1="400.1" y1="-63.5" x2="121.2" y2="155.3"/>
		</g>
		<g>
			<line class="st2" x1="397.3" y1="-63.5" x2="118.4" y2="155.3"/>
		</g>
		<g>
			<line class="st2" x1="394.5" y1="-63.5" x2="115.6" y2="155.3"/>
		</g>
		<g>
			<line class="st2" x1="391.8" y1="-63.5" x2="112.8" y2="155.3"/>
		</g>
		<g>
			<line class="st2" x1="389" y1="-63.5" x2="110" y2="155.3"/>
		</g>
		<g>
			<line class="st2" x1="386.2" y1="-63.5" x2="107.2" y2="155.3"/>
		</g>
		<g>
			<line class="st2" x1="383.4" y1="-63.5" x2="104.5" y2="155.3"/>
		</g>
		<g>
			<line class="st2" x1="380.6" y1="-63.5" x2="101.7" y2="155.3"/>
		</g>
		<g>
			<line class="st2" x1="377.8" y1="-63.5" x2="98.9" y2="155.3"/>
		</g>
		<g>
			<line class="st2" x1="375" y1="-63.5" x2="96.1" y2="155.3"/>
		</g>
		<g>
			<line class="st2" x1="372.2" y1="-63.5" x2="93.3" y2="155.3"/>
		</g>
		<g>
			<line class="st2" x1="369.4" y1="-63.5" x2="90.5" y2="155.3"/>
		</g>
		<g>
			<line class="st2" x1="366.6" y1="-63.5" x2="87.7" y2="155.3"/>
		</g>
		<g>
			<line class="st2" x1="363.8" y1="-63.5" x2="84.9" y2="155.3"/>
		</g>
		<g>
			<line class="st2" x1="361" y1="-63.5" x2="82.1" y2="155.3"/>
		</g>
		<g>
			<line class="st2" x1="358.2" y1="-63.5" x2="79.3" y2="155.3"/>
		</g>
		<g>
			<line class="st2" x1="355.4" y1="-63.5" x2="76.5" y2="155.3"/>
		</g>
		<g>
			<line class="st2" x1="352.6" y1="-63.5" x2="73.7" y2="155.3"/>
		</g>
		<g>
			<line class="st2" x1="349.8" y1="-63.5" x2="70.9" y2="155.3"/>
		</g>
		<g>
			<line class="st2" x1="347" y1="-63.5" x2="68.1" y2="155.3"/>
		</g>
		<g>
			<line class="st2" x1="344.3" y1="-63.5" x2="65.3" y2="155.3"/>
		</g>
		<g>
			<line class="st2" x1="341.5" y1="-63.5" x2="62.5" y2="155.3"/>
		</g>
		<g>
			<line class="st2" x1="338.7" y1="-63.5" x2="59.7" y2="155.3"/>
		</g>
		<g>
			<line class="st2" x1="335.9" y1="-63.5" x2="57" y2="155.3"/>
		</g>
		<g>
			<line class="st2" x1="333.1" y1="-63.5" x2="54.2" y2="155.3"/>
		</g>
		<g>
			<line class="st2" x1="330.3" y1="-63.5" x2="51.4" y2="155.3"/>
		</g>
		<g>
			<line class="st2" x1="327.5" y1="-63.5" x2="48.6" y2="155.3"/>
		</g>
		<g>
			<line class="st2" x1="324.7" y1="-63.5" x2="45.8" y2="155.3"/>
		</g>
		<g>
			<line class="st2" x1="321.9" y1="-63.5" x2="43" y2="155.3"/>
		</g>
		<g>
			<line class="st2" x1="319.1" y1="-63.5" x2="40.2" y2="155.3"/>
		</g>
		<g>
			<line class="st2" x1="316.3" y1="-63.5" x2="37.4" y2="155.3"/>
		</g>
		<g>
			<line class="st2" x1="313.5" y1="-63.5" x2="34.6" y2="155.3"/>
		</g>
		<g>
			<line class="st2" x1="310.7" y1="-63.5" x2="31.8" y2="155.3"/>
		</g>
		<g>
			<line class="st2" x1="307.9" y1="-63.5" x2="29" y2="155.3"/>
		</g>
		<g>
			<line class="st2" x1="305.1" y1="-63.5" x2="26.2" y2="155.3"/>
		</g>
		<g>
			<line class="st2" x1="302.3" y1="-63.5" x2="23.4" y2="155.3"/>
		</g>
		<g>
			<line class="st2" x1="299.5" y1="-63.5" x2="20.6" y2="155.3"/>
		</g>
		<g>
			<line class="st2" x1="296.8" y1="-63.5" x2="17.8" y2="155.3"/>
		</g>
		<g>
			<line class="st2" x1="294" y1="-63.5" x2="15" y2="155.3"/>
		</g>
		<g>
			<line class="st2" x1="291.2" y1="-63.5" x2="12.3" y2="155.3"/>
		</g>
		<g>
			<line class="st2" x1="288.4" y1="-63.5" x2="9.5" y2="155.3"/>
		</g>
		<g>
			<line class="st2" x1="285.6" y1="-63.5" x2="6.7" y2="155.3"/>
		</g>
		<g>
			<line class="st2" x1="282.8" y1="-63.5" x2="3.9" y2="155.3"/>
		</g>
		<g>
			<line class="st2" x1="280" y1="-63.5" x2="1.1" y2="155.3"/>
		</g>
		<g>
			<line class="st2" x1="277.2" y1="-63.5" x2="-1.7" y2="155.3"/>
		</g>
		<g>
			<line class="st2" x1="274.4" y1="-63.5" x2="-4.5" y2="155.3"/>
		</g>
		<g>
			<line class="st2" x1="271.6" y1="-63.5" x2="-7.3" y2="155.3"/>
		</g>
		<g>
			<line class="st2" x1="268.8" y1="-63.5" x2="-10.1" y2="155.3"/>
		</g>
		<g>
			<line class="st2" x1="266" y1="-63.5" x2="-12.9" y2="155.3"/>
		</g>
		<g>
			<line class="st2" x1="263.2" y1="-63.5" x2="-15.7" y2="155.3"/>
		</g>
		<g>
			<line class="st2" x1="260.4" y1="-63.5" x2="-18.5" y2="155.3"/>
		</g>
		<g>
			<line class="st2" x1="257.6" y1="-63.5" x2="-21.3" y2="155.3"/>
		</g>
		<g>
			<line class="st2" x1="254.8" y1="-63.5" x2="-24.1" y2="155.3"/>
		</g>
		<g>
			<line class="st2" x1="252.1" y1="-63.5" x2="-26.9" y2="155.3"/>
		</g>
		<g>
			<line class="st2" x1="249.3" y1="-63.5" x2="-29.7" y2="155.3"/>
		</g>
		<g>
			<line class="st2" x1="246.5" y1="-63.5" x2="-32.5" y2="155.3"/>
		</g>
		<g>
			<line class="st2" x1="243.7" y1="-63.5" x2="-35.2" y2="155.3"/>
		</g>
		<g>
			<line class="st2" x1="240.9" y1="-63.5" x2="-38" y2="155.3"/>
		</g>
		<g>
			<line class="st2" x1="238.1" y1="-63.5" x2="-40.8" y2="155.3"/>
		</g>
		<g>
			<line class="st2" x1="235.3" y1="-63.5" x2="-43.6" y2="155.3"/>
		</g>
		<g>
			<line class="st2" x1="232.5" y1="-63.5" x2="-46.4" y2="155.3"/>
		</g>
		<g>
			<line class="st2" x1="229.7" y1="-63.5" x2="-49.2" y2="155.3"/>
		</g>
		<g>
			<line class="st2" x1="226.9" y1="-63.5" x2="-52" y2="155.3"/>
		</g>
		<g>
			<line class="st2" x1="224.1" y1="-63.5" x2="-54.8" y2="155.3"/>
		</g>
		<g>
			<line class="st2" x1="221.3" y1="-63.5" x2="-57.6" y2="155.3"/>
		</g>
		<g>
			<line class="st2" x1="218.5" y1="-63.5" x2="-60.4" y2="155.3"/>
		</g>
		<g>
			<line class="st2" x1="215.7" y1="-63.5" x2="-63.2" y2="155.3"/>
		</g>
		<g>
			<line class="st2" x1="212.9" y1="-63.5" x2="-66" y2="155.3"/>
		</g>
		<g>
			<line class="st2" x1="210.1" y1="-63.5" x2="-68.8" y2="155.3"/>
		</g>
		<g>
			<line class="st2" x1="207.3" y1="-63.5" x2="-71.6" y2="155.3"/>
		</g>
		<g>
			<line class="st2" x1="204.6" y1="-63.5" x2="-74.4" y2="155.3"/>
		</g>
		<g>
			<line class="st2" x1="201.8" y1="-63.5" x2="-77.2" y2="155.3"/>
		</g>
		<g>
			<line class="st2" x1="199" y1="-63.5" x2="-80" y2="155.3"/>
		</g>
		<g>
			<line class="st2" x1="196.2" y1="-63.5" x2="-82.7" y2="155.3"/>
		</g>
		<g>
			<line class="st2" x1="193.4" y1="-63.5" x2="-85.5" y2="155.3"/>
		</g>
		<g>
			<line class="st2" x1="190.6" y1="-63.5" x2="-88.3" y2="155.3"/>
		</g>
		<g>
			<line class="st2" x1="187.8" y1="-63.5" x2="-91.1" y2="155.3"/>
		</g>
		<g>
			<line class="st2" x1="185" y1="-63.5" x2="-93.9" y2="155.3"/>
		</g>
		<g>
			<line class="st2" x1="182.2" y1="-63.5" x2="-96.7" y2="155.3"/>
		</g>
		<g>
			<line class="st2" x1="179.4" y1="-63.5" x2="-99.5" y2="155.3"/>
		</g>
		<g>
			<line class="st2" x1="176.6" y1="-63.5" x2="-102.3" y2="155.3"/>
		</g>
		<g>
			<line class="st2" x1="173.8" y1="-63.5" x2="-105.1" y2="155.3"/>
		</g>
		<g>
			<line class="st2" x1="171" y1="-63.5" x2="-107.9" y2="155.3"/>
		</g>
		<g>
			<line class="st2" x1="168.2" y1="-63.5" x2="-110.7" y2="155.3"/>
		</g>
		<g>
			<line class="st2" x1="165.4" y1="-63.5" x2="-113.5" y2="155.3"/>
		</g>
		<g>
			<line class="st2" x1="162.6" y1="-63.5" x2="-116.3" y2="155.3"/>
		</g>
		<g>
			<line class="st2" x1="159.9" y1="-63.5" x2="-119.1" y2="155.3"/>
		</g>
		<g>
			<line class="st2" x1="157.1" y1="-63.5" x2="-121.9" y2="155.3"/>
		</g>
		<g>
			<line class="st2" x1="154.3" y1="-63.5" x2="-124.7" y2="155.3"/>
		</g>
		<g>
			<line class="st2" x1="151.5" y1="-63.5" x2="-127.4" y2="155.3"/>
		</g>
		<g>
			<line class="st2" x1="148.7" y1="-63.5" x2="-130.2" y2="155.3"/>
		</g>
		<g>
			<line class="st2" x1="145.9" y1="-63.5" x2="-133" y2="155.3"/>
		</g>
		<g>
			<line class="st2" x1="143.1" y1="-63.5" x2="-135.8" y2="155.3"/>
		</g>
		<g>
			<line class="st2" x1="140.3" y1="-63.5" x2="-138.6" y2="155.3"/>
		</g>
		<g>
			<line class="st2" x1="137.5" y1="-63.5" x2="-141.4" y2="155.3"/>
		</g>
		<g>
			<line class="st2" x1="134.7" y1="-63.5" x2="-144.2" y2="155.3"/>
		</g>
		<g>
			<line class="st2" x1="131.9" y1="-63.5" x2="-147" y2="155.3"/>
		</g>
		<g>
			<line class="st2" x1="129.1" y1="-63.5" x2="-149.8" y2="155.3"/>
		</g>
		<g>
			<line class="st2" x1="126.3" y1="-63.5" x2="-152.6" y2="155.3"/>
		</g>
		<g>
			<line class="st2" x1="123.5" y1="-63.5" x2="-155.4" y2="155.3"/>
		</g>
		<g>
			<line class="st2" x1="120.7" y1="-63.5" x2="-158.2" y2="155.3"/>
		</g>
		<g>
			<line class="st2" x1="117.9" y1="-63.5" x2="-161" y2="155.3"/>
		</g>
		<g>
			<line class="st2" x1="115.1" y1="-63.5" x2="-163.8" y2="155.3"/>
		</g>
		<g>
			<line class="st2" x1="112.4" y1="-63.5" x2="-166.6" y2="155.3"/>
		</g>
		<g>
			<line class="st2" x1="109.6" y1="-63.5" x2="-169.4" y2="155.3"/>
		</g>
		<g>
			<line class="st2" x1="106.8" y1="-63.5" x2="-172.2" y2="155.3"/>
		</g>
		<g>
			<line class="st2" x1="104" y1="-63.5" x2="-174.9" y2="155.3"/>
		</g>
		<g>
			<line class="st2" x1="101.2" y1="-63.5" x2="-177.7" y2="155.3"/>
		</g>
		<g>
			<line class="st2" x1="98.4" y1="-63.5" x2="-180.5" y2="155.3"/>
		</g>
		<g>
			<line class="st2" x1="95.6" y1="-63.5" x2="-183.3" y2="155.3"/>
		</g>
		<g>
			<line class="st2" x1="92.8" y1="-63.5" x2="-186.1" y2="155.3"/>
		</g>
		<g>
			<line class="st2" x1="90" y1="-63.5" x2="-188.9" y2="155.3"/>
		</g>
		<g>
			<line class="st2" x1="87.2" y1="-63.5" x2="-191.7" y2="155.3"/>
		</g>
		<g>
			<line class="st2" x1="84.4" y1="-63.5" x2="-194.5" y2="155.3"/>
		</g>
		<g>
			<line class="st2" x1="81.6" y1="-63.5" x2="-197.3" y2="155.3"/>
		</g>
		<g>
			<line class="st2" x1="78.8" y1="-63.5" x2="-200.1" y2="155.3"/>
		</g>
		<g>
			<line class="st2" x1="76" y1="-63.5" x2="-202.9" y2="155.3"/>
		</g>
		<g>
			<line class="st2" x1="73.2" y1="-63.5" x2="-205.7" y2="155.3"/>
		</g>
	</g>
	<rect class="st3" width="300" height="150"/>
	
		<radialGradient id="SVGID_3_" cx="145.5" cy="75" r="219.0009" gradientTransform="matrix(1 0 0 0.6016 0 29.8814)" gradientUnits="userSpaceOnUse">
		<stop  offset="0.1506" style="stop-color:#FFFFFF"/>
		<stop  offset="0.4955" style="stop-color:#BCBEC0"/>
		<stop  offset="0.6499" style="stop-color:#939598"/>
		<stop  offset="1" style="stop-color:#231F20"/>
	</radialGradient>
	<rect class="st4" width="300" height="150"/>
</g>
</svg>
