<?xml version="1.0" encoding="utf-8"?>
<!-- Generator: Adobe Illustrator 24.1.2, SVG Export Plug-In . SVG Version: 6.00 Build 0)  -->
<svg version="1.1" id="Layer_1" xmlns="http://www.w3.org/2000/svg" xmlns:xlink="http://www.w3.org/1999/xlink" x="0px" y="0px"
	 viewBox="0 0 153.2 107.3" style="enable-background:new 0 0 153.2 107.3;" xml:space="preserve">
<style type="text/css">
	.st0{fill:#FFFDFD;}
	.st1{fill:#FF8B00;}
	.st2{fill:#FFFFFF;}
</style>
<g>
	<path class="st0" d="M93.9,107.3c-29.6,0-53.7-24.1-53.7-53.7C40.2,24.1,64.3,0,93.9,0s53.7,24.1,53.7,53.7
		C147.6,83.3,123.5,107.3,93.9,107.3z M93.9,2.3c-28.3,0-51.4,23.1-51.4,51.4c0,28.3,23.1,51.4,51.4,51.4s51.4-23.1,51.4-51.4
		C145.3,25.3,122.2,2.3,93.9,2.3z"/>
</g>
<g>
	<path class="st1" d="M12.3,86V70.2l23.9-22.1c1.9-1.7,3.1-3.2,3.7-4.4c0.6-1.1,0.8-2.2,0.8-3.2c0-1.1-0.3-1.9-1-2.4
		c-0.8-0.6-2-1-3.6-1c-1.7,0-3.2,0.4-4.7,1.3c-1.5,0.9-2.5,2.1-3.3,3.7l-0.7,1.5L7.9,33.9l0.8-1.5c2.6-4.9,6.4-8.8,11.4-11.6
		c5-2.8,11-4.2,18-4.2c5.3,0,10.1,0.9,14.2,2.6c4.2,1.8,7.5,4.4,9.9,7.7c2.4,3.4,3.6,7.2,3.6,11.6c0,3.8-0.8,7.4-2.4,10.7
		c-1.6,3.3-4.6,7-9.2,11.1l-6,5.5h19.1V86H12.3z"/>
	<path class="st2" d="M38.2,18.3c5.1,0,9.6,0.8,13.6,2.5c3.9,1.7,7,4,9.2,7.1c2.2,3.1,3.3,6.6,3.3,10.6c0,3.6-0.8,6.9-2.3,10
		c-1.5,3.1-4.4,6.6-8.8,10.6L44,67.4h21.8v16.9H14V70.9l23.3-21.6c2-1.9,3.4-3.5,4.1-4.9c0.7-1.4,1-2.7,1-4c0-1.6-0.5-2.8-1.6-3.7
		c-1.1-0.9-2.6-1.3-4.7-1.3c-2,0-3.8,0.5-5.5,1.6c-1.7,1-3,2.5-4,4.4l-16.4-8.2c2.5-4.6,6.1-8.3,10.8-10.9
		C25.8,19.6,31.5,18.3,38.2,18.3 M38.2,14.9c-7.3,0-13.6,1.5-18.8,4.4c-5.3,3-9.3,7.1-12.1,12.3l-1.6,3l3.1,1.5l16.4,8.2l3,1.5
		l1.5-3.1c0.6-1.3,1.5-2.3,2.7-3c1.2-0.7,2.4-1.1,3.8-1.1c1.2,0,2.1,0.2,2.5,0.6c0.1,0.1,0.4,0.3,0.4,1.1c0,0.8-0.2,1.6-0.7,2.5
		c-0.3,0.6-1.1,1.8-3.4,3.9L11.7,68.4l-1.1,1v1.5v13.4v3.4H14h51.7h3.4v-3.4V67.4v-3.4h-3.4H52.6l2.8-2.5c4.7-4.3,7.8-8,9.6-11.6
		c1.7-3.6,2.6-7.4,2.6-11.5c0-4.7-1.3-8.9-4-12.6c-2.6-3.6-6.1-6.3-10.6-8.2C48.7,15.8,43.7,14.9,38.2,14.9L38.2,14.9z"/>
</g>
<g>
	<path class="st0" d="M72.1,28.4l0.9-4.7h-1.9l0.3-1.7h5.9L77,23.7h-1.9l-0.9,4.7H72.1z"/>
	<path class="st0" d="M79.1,28.5c-0.5,0-1-0.1-1.4-0.3c-0.4-0.2-0.7-0.5-1-0.8c-0.2-0.3-0.3-0.8-0.3-1.2c0-0.5,0.1-1,0.4-1.5
		c0.3-0.4,0.6-0.8,1.1-1c0.5-0.2,1-0.4,1.6-0.4c0.5,0,1,0.1,1.4,0.3c0.4,0.2,0.7,0.4,0.9,0.8s0.3,0.7,0.3,1.1c0,0.2,0,0.3,0,0.4
		s0,0.3-0.1,0.4H78l0.2-1h2.7L80,25.7c0-0.2,0-0.4,0-0.5c-0.1-0.1-0.1-0.2-0.3-0.3c-0.1-0.1-0.3-0.1-0.4-0.1c-0.2,0-0.4,0.1-0.6,0.2
		s-0.3,0.3-0.3,0.5c-0.1,0.2-0.1,0.4-0.1,0.7c0,0.3,0.1,0.5,0.3,0.7c0.2,0.1,0.4,0.2,0.7,0.2c0.2,0,0.4,0,0.6-0.1
		c0.2-0.1,0.4-0.1,0.5-0.3l0.9,1.3c-0.3,0.2-0.7,0.4-1.1,0.5C79.8,28.5,79.5,28.5,79.1,28.5z"/>
	<path class="st0" d="M78.1,34.3c0.4,0,0.7,0.1,1,0.3s0.5,0.4,0.6,0.8c0.1,0.3,0.1,0.8,0,1.3l-0.5,2.8h-2.1l0.5-2.5
		c0.1-0.3,0-0.5,0-0.7c-0.1-0.1-0.2-0.2-0.4-0.2c-0.2,0-0.4,0.1-0.5,0.2s-0.2,0.4-0.3,0.7L76,39.4h-2.1l0.5-2.5c0.1-0.3,0-0.5,0-0.7
		C74.3,36.1,74.2,36,74,36c-0.2,0-0.4,0.1-0.5,0.2c-0.1,0.1-0.2,0.4-0.3,0.7l-0.5,2.4h-2.1l1-5h1.9l-0.2,1l-0.3,0
		c0.2-0.4,0.5-0.7,0.8-0.8c0.3-0.2,0.7-0.3,1-0.3c0.3,0,0.5,0.1,0.8,0.2s0.4,0.3,0.6,0.5c0.2,0.2,0.3,0.5,0.3,0.8L76,35.6
		c0.2-0.4,0.5-0.7,0.9-1C77.2,34.4,77.7,34.3,78.1,34.3z"/>
	<path class="st0" d="M83.1,39.5c-0.5,0-1-0.1-1.4-0.3c-0.4-0.2-0.7-0.5-0.9-0.8s-0.3-0.8-0.3-1.2c0-0.5,0.1-1,0.4-1.5
		c0.3-0.4,0.6-0.8,1.1-1c0.5-0.2,1-0.4,1.6-0.4c0.6,0,1,0.1,1.4,0.3c0.4,0.2,0.7,0.5,0.9,0.8s0.3,0.8,0.3,1.2c0,0.5-0.1,1-0.4,1.5
		c-0.3,0.4-0.6,0.8-1.1,1S83.7,39.5,83.1,39.5z M83.2,37.9c0.2,0,0.3,0,0.5-0.1s0.2-0.2,0.3-0.4c0.1-0.2,0.1-0.4,0.1-0.6
		c0-0.2-0.1-0.4-0.2-0.6c-0.1-0.2-0.3-0.2-0.5-0.2c-0.2,0-0.3,0-0.5,0.1s-0.2,0.2-0.3,0.4c-0.1,0.2-0.1,0.4-0.1,0.6s0.1,0.4,0.2,0.6
		C82.8,37.8,83,37.9,83.2,37.9z"/>
	<path class="st0" d="M88.4,39.5c-0.4,0-0.9,0-1.3-0.1c-0.4-0.1-0.7-0.2-0.9-0.3l0.7-1.4c0.2,0.2,0.5,0.3,0.8,0.3s0.6,0.1,0.9,0.1
		c0.2,0,0.4,0,0.5-0.1c0.1,0,0.1-0.1,0.1-0.2c0-0.1-0.1-0.1-0.2-0.2c-0.1,0-0.3-0.1-0.5-0.1c-0.2,0-0.4-0.1-0.6-0.1
		s-0.4-0.1-0.6-0.2c-0.2-0.1-0.3-0.2-0.5-0.4c-0.1-0.2-0.2-0.4-0.2-0.7c0-0.4,0.1-0.8,0.4-1.1c0.3-0.3,0.6-0.5,1-0.6
		c0.4-0.1,0.9-0.2,1.4-0.2c0.4,0,0.7,0,1.1,0.1c0.3,0.1,0.6,0.2,0.9,0.3l-0.7,1.4c-0.3-0.2-0.5-0.3-0.8-0.3c-0.3,0-0.5-0.1-0.7-0.1
		c-0.2,0-0.4,0-0.5,0.1s-0.1,0.1-0.1,0.2c0,0.1,0.1,0.1,0.2,0.2s0.3,0.1,0.5,0.1s0.4,0.1,0.6,0.1c0.2,0,0.4,0.1,0.6,0.2
		c0.2,0.1,0.3,0.2,0.5,0.4c0.1,0.2,0.2,0.4,0.2,0.7c0,0.4-0.1,0.8-0.4,1s-0.6,0.5-1,0.6C89.4,39.4,88.9,39.5,88.4,39.5z"/>
	<path class="st0" d="M91.7,36.2l0.3-1.5h3.8l-0.3,1.5H91.7z M93.9,39.5c-0.4,0-0.8-0.1-1.1-0.2c-0.3-0.2-0.5-0.4-0.6-0.7
		c-0.1-0.3-0.1-0.7-0.1-1.1l0.8-4.2H95l-0.8,4.2c0,0.2,0,0.3,0.1,0.4c0.1,0.1,0.2,0.1,0.3,0.1c0.1,0,0.2,0,0.2,0
		c0.1,0,0.1,0,0.2-0.1l0.2,1.4c-0.2,0.1-0.4,0.2-0.6,0.2C94.4,39.4,94.1,39.5,93.9,39.5z"/>
	<path class="st0" d="M95.7,39.4l1-5h1.9l-0.3,1.4l-0.2-0.4c0.2-0.4,0.5-0.7,0.9-0.8s0.8-0.3,1.3-0.3l-0.4,1.8c-0.1,0-0.2,0-0.2,0
		c-0.1,0-0.1,0-0.2,0c-0.3,0-0.6,0.1-0.8,0.2c-0.2,0.2-0.4,0.4-0.4,0.8l-0.5,2.3H95.7z"/>
	<path class="st0" d="M102.1,39.5c-0.3,0-0.7-0.1-1-0.3c-0.3-0.2-0.6-0.4-0.8-0.8c-0.2-0.3-0.3-0.8-0.3-1.3c0-0.4,0.1-0.8,0.2-1.1
		c0.1-0.3,0.3-0.6,0.6-0.9c0.2-0.3,0.5-0.5,0.8-0.6s0.7-0.2,1-0.2c0.4,0,0.7,0.1,1,0.2s0.5,0.4,0.6,0.8c0.1,0.4,0.1,0.9,0,1.5
		c-0.1,0.5-0.2,1-0.4,1.4c-0.2,0.4-0.5,0.7-0.8,0.9C102.9,39.4,102.5,39.5,102.1,39.5z M102.9,37.8c0.2,0,0.3,0,0.5-0.1
		c0.1-0.1,0.2-0.2,0.3-0.4c0.1-0.2,0.1-0.4,0.1-0.6s-0.1-0.4-0.2-0.6s-0.3-0.2-0.5-0.2c-0.2,0-0.3,0-0.5,0.1
		c-0.1,0.1-0.2,0.2-0.3,0.4c-0.1,0.2-0.1,0.4-0.1,0.6c0,0.2,0.1,0.4,0.2,0.6C102.5,37.8,102.6,37.8,102.9,37.8z M103.3,39.4l0.1-0.7
		l0.3-1.8l0.3-1.8l0.1-0.7h2.1l-1,5H103.3z"/>
	<path class="st0" d="M113.7,34.3c0.4,0,0.7,0.1,1,0.3s0.5,0.4,0.6,0.8c0.1,0.3,0.1,0.8,0,1.3l-0.5,2.8h-2.1l0.5-2.5
		c0.1-0.3,0-0.5,0-0.7c-0.1-0.1-0.2-0.2-0.4-0.2c-0.2,0-0.4,0.1-0.5,0.2s-0.2,0.4-0.3,0.7l-0.5,2.5h-2.1l0.5-2.5
		c0.1-0.3,0-0.5,0-0.7c-0.1-0.1-0.2-0.2-0.4-0.2c-0.2,0-0.4,0.1-0.5,0.2c-0.1,0.1-0.2,0.4-0.3,0.7l-0.5,2.4h-2.1l1-5h1.9l-0.2,1
		l-0.3,0c0.2-0.4,0.5-0.7,0.8-0.8c0.3-0.2,0.7-0.3,1-0.3c0.3,0,0.5,0.1,0.8,0.2s0.4,0.3,0.6,0.5c0.2,0.2,0.3,0.5,0.3,0.8l-0.5-0.2
		c0.2-0.4,0.5-0.7,0.9-1C112.8,34.4,113.2,34.3,113.7,34.3z"/>
	<path class="st0" d="M118.7,39.5c-0.5,0-1-0.1-1.4-0.3c-0.4-0.2-0.7-0.5-0.9-0.8s-0.3-0.8-0.3-1.2c0-0.5,0.1-1,0.4-1.5
		c0.3-0.4,0.6-0.8,1.1-1c0.5-0.2,1-0.4,1.6-0.4c0.6,0,1,0.1,1.4,0.3c0.4,0.2,0.7,0.5,0.9,0.8s0.3,0.8,0.3,1.2c0,0.5-0.1,1-0.4,1.5
		c-0.3,0.4-0.6,0.8-1.1,1S119.3,39.5,118.7,39.5z M118.8,37.9c0.2,0,0.3,0,0.5-0.1s0.2-0.2,0.3-0.4c0.1-0.2,0.1-0.4,0.1-0.6
		c0-0.2-0.1-0.4-0.2-0.6c-0.1-0.2-0.3-0.2-0.5-0.2c-0.2,0-0.3,0-0.5,0.1s-0.2,0.2-0.3,0.4c-0.1,0.2-0.1,0.4-0.1,0.6s0.1,0.4,0.2,0.6
		C118.4,37.8,118.5,37.9,118.8,37.9z"/>
	<path class="st0" d="M124,39.5c-0.4,0-0.9,0-1.3-0.1c-0.4-0.1-0.7-0.2-0.9-0.3l0.7-1.4c0.2,0.2,0.5,0.3,0.8,0.3s0.6,0.1,0.9,0.1
		c0.2,0,0.4,0,0.5-0.1c0.1,0,0.1-0.1,0.1-0.2c0-0.1-0.1-0.1-0.2-0.2c-0.1,0-0.3-0.1-0.5-0.1c-0.2,0-0.4-0.1-0.6-0.1
		s-0.4-0.1-0.6-0.2c-0.2-0.1-0.3-0.2-0.5-0.4c-0.1-0.2-0.2-0.4-0.2-0.7c0-0.4,0.1-0.8,0.4-1.1c0.3-0.3,0.6-0.5,1-0.6
		c0.4-0.1,0.9-0.2,1.4-0.2c0.4,0,0.7,0,1.1,0.1c0.3,0.1,0.6,0.2,0.9,0.3l-0.7,1.4c-0.3-0.2-0.5-0.3-0.8-0.3c-0.3,0-0.5-0.1-0.7-0.1
		c-0.2,0-0.4,0-0.5,0.1s-0.1,0.1-0.1,0.2c0,0.1,0.1,0.1,0.2,0.2s0.3,0.1,0.5,0.1s0.4,0.1,0.6,0.1c0.2,0,0.4,0.1,0.6,0.2
		c0.2,0.1,0.3,0.2,0.5,0.4c0.1,0.2,0.2,0.4,0.2,0.7c0,0.4-0.1,0.8-0.4,1s-0.6,0.5-1,0.6C125,39.4,124.5,39.5,124,39.5z"/>
	<path class="st0" d="M78.1,45.2c0.4,0,0.7,0.1,1,0.3c0.3,0.2,0.5,0.4,0.6,0.8c0.1,0.3,0.1,0.8,0,1.3l-0.5,2.8h-2.1l0.5-2.5
		c0.1-0.3,0-0.5,0-0.7C77.5,47,77.4,47,77.3,47c-0.2,0-0.4,0.1-0.5,0.2s-0.2,0.4-0.3,0.7L76,50.3h-2.1l0.5-2.5c0.1-0.3,0-0.5,0-0.7
		C74.3,47,74.2,47,74,47c-0.2,0-0.4,0.1-0.5,0.2c-0.1,0.1-0.2,0.4-0.3,0.7l-0.5,2.4h-2.1l1-5h1.9l-0.2,1l-0.3,0
		c0.2-0.4,0.5-0.7,0.8-0.8c0.3-0.2,0.7-0.3,1-0.3c0.3,0,0.5,0.1,0.8,0.2s0.4,0.3,0.6,0.5s0.3,0.5,0.3,0.8L76,46.5
		c0.2-0.4,0.5-0.7,0.9-1C77.2,45.3,77.7,45.2,78.1,45.2z"/>
	<path class="st0" d="M82.4,50.4c-0.3,0-0.7-0.1-1-0.3c-0.3-0.2-0.6-0.4-0.8-0.8c-0.2-0.3-0.3-0.8-0.3-1.3c0-0.4,0.1-0.8,0.2-1.1
		c0.1-0.3,0.3-0.6,0.6-0.9c0.2-0.3,0.5-0.5,0.8-0.6c0.3-0.1,0.7-0.2,1-0.2c0.4,0,0.7,0.1,1,0.2s0.5,0.4,0.6,0.8
		c0.1,0.4,0.1,0.9,0,1.5c-0.1,0.5-0.2,1-0.4,1.4c-0.2,0.4-0.5,0.7-0.8,0.9S82.9,50.4,82.4,50.4z M83.2,48.8c0.2,0,0.3,0,0.5-0.1
		c0.1-0.1,0.2-0.2,0.3-0.4c0.1-0.2,0.1-0.4,0.1-0.6s-0.1-0.4-0.2-0.6c-0.1-0.1-0.3-0.2-0.5-0.2c-0.2,0-0.3,0-0.5,0.1
		c-0.1,0.1-0.2,0.2-0.3,0.4c-0.1,0.2-0.1,0.4-0.1,0.6c0,0.2,0.1,0.4,0.2,0.6C82.8,48.7,83,48.8,83.2,48.8z M83.7,50.3l0.1-0.7
		l0.3-1.8l0.3-1.8l0.1-0.7h2.1l-1,5H83.7z"/>
	<path class="st0" d="M88.8,50.4c-0.3,0-0.7-0.1-1-0.3c-0.3-0.2-0.6-0.4-0.8-0.8c-0.2-0.3-0.3-0.8-0.3-1.3c0-0.4,0.1-0.8,0.2-1.1
		c0.1-0.3,0.3-0.6,0.6-0.9c0.2-0.3,0.5-0.5,0.8-0.6c0.3-0.1,0.7-0.2,1-0.2c0.4,0,0.7,0.1,1,0.2s0.5,0.4,0.6,0.8
		c0.1,0.4,0.1,0.9,0,1.5c-0.1,0.5-0.2,1-0.4,1.4c-0.2,0.4-0.5,0.7-0.8,0.9S89.2,50.4,88.8,50.4z M89.6,48.8c0.2,0,0.3,0,0.5-0.1
		c0.1-0.1,0.2-0.2,0.3-0.4c0.1-0.2,0.1-0.4,0.1-0.6s-0.1-0.4-0.2-0.6c-0.1-0.1-0.3-0.2-0.5-0.2c-0.2,0-0.3,0-0.5,0.1
		c-0.1,0.1-0.2,0.2-0.3,0.4c-0.1,0.2-0.1,0.4-0.1,0.6c0,0.2,0.1,0.4,0.2,0.6C89.2,48.7,89.4,48.8,89.6,48.8z M89.6,52.1l0.5-2.5
		l0.4-1.8l0.4-1.8l0.1-0.7h2l-1.4,6.8H89.6z"/>
	<path class="st0" d="M95.1,50.4c-0.4,0-0.8-0.1-1-0.3c-0.3-0.2-0.5-0.4-0.6-0.8s-0.1-0.8,0-1.3l0.5-2.8H96l-0.5,2.5
		c-0.1,0.3,0,0.5,0,0.6c0.1,0.1,0.2,0.2,0.4,0.2c0.2,0,0.4-0.1,0.6-0.2c0.2-0.2,0.3-0.4,0.3-0.7l0.5-2.4h2.1l-1,5h-1.9l0.3-1.4
		l0.2,0.4c-0.2,0.4-0.5,0.7-0.9,0.8C95.8,50.3,95.4,50.4,95.1,50.4z"/>
	<path class="st0" d="M102.3,50.4c-0.5,0-1-0.1-1.4-0.3s-0.7-0.5-1-0.8c-0.2-0.3-0.3-0.8-0.3-1.2c0-0.5,0.1-1,0.4-1.5
		c0.3-0.4,0.6-0.8,1.1-1c0.5-0.2,1-0.4,1.6-0.4c0.5,0,1,0.1,1.4,0.3c0.4,0.2,0.7,0.4,0.9,0.8c0.2,0.3,0.3,0.7,0.3,1.1
		c0,0.2,0,0.3,0,0.4c0,0.1,0,0.3-0.1,0.4h-3.9l0.2-1h2.7l-0.9,0.3c0-0.2,0-0.4,0-0.5s-0.1-0.2-0.3-0.3c-0.1-0.1-0.3-0.1-0.4-0.1
		c-0.2,0-0.4,0.1-0.6,0.2s-0.3,0.3-0.3,0.5s-0.1,0.4-0.1,0.7c0,0.3,0.1,0.5,0.3,0.7c0.2,0.1,0.4,0.2,0.7,0.2c0.2,0,0.4,0,0.6-0.1
		s0.4-0.1,0.5-0.3l0.9,1.3c-0.3,0.2-0.7,0.4-1.1,0.5C103,50.4,102.7,50.4,102.3,50.4z"/>
	<path class="st0" d="M105.4,47.1l0.3-1.5h3.8l-0.3,1.5H105.4z M107.6,50.4c-0.4,0-0.8-0.1-1.1-0.2c-0.3-0.2-0.5-0.4-0.6-0.7
		c-0.1-0.3-0.1-0.7-0.1-1.1l0.8-4.2h2.1l-0.8,4.2c0,0.2,0,0.3,0.1,0.4c0.1,0.1,0.2,0.1,0.3,0.1c0.1,0,0.2,0,0.2,0
		c0.1,0,0.1-0.1,0.2-0.1l0.2,1.4c-0.2,0.1-0.4,0.2-0.6,0.2C108.1,50.4,107.9,50.4,107.6,50.4z"/>
	<path class="st0" d="M111.6,50.4c-0.3,0-0.7-0.1-1-0.3c-0.3-0.2-0.6-0.4-0.8-0.8c-0.2-0.3-0.3-0.8-0.3-1.3c0-0.4,0.1-0.8,0.2-1.1
		c0.1-0.3,0.3-0.6,0.6-0.9c0.2-0.3,0.5-0.5,0.8-0.6c0.3-0.1,0.7-0.2,1-0.2c0.4,0,0.7,0.1,1,0.2s0.5,0.4,0.6,0.8
		c0.1,0.4,0.1,0.9,0,1.5c-0.1,0.5-0.2,1-0.4,1.4c-0.2,0.4-0.5,0.7-0.8,0.9S112,50.4,111.6,50.4z M112.3,48.8c0.2,0,0.3,0,0.5-0.1
		c0.1-0.1,0.2-0.2,0.3-0.4c0.1-0.2,0.1-0.4,0.1-0.6s-0.1-0.4-0.2-0.6c-0.1-0.1-0.3-0.2-0.5-0.2c-0.2,0-0.3,0-0.5,0.1
		c-0.1,0.1-0.2,0.2-0.3,0.4c-0.1,0.2-0.1,0.4-0.1,0.6c0,0.2,0.1,0.4,0.2,0.6C111.9,48.7,112.1,48.8,112.3,48.8z M112.8,50.3l0.1-0.7
		l0.3-1.8l0.3-1.8l0.1-0.7h2.1l-1,5H112.8z"/>
	<path class="st0" d="M117.8,50.4c-0.4,0-0.9,0-1.3-0.1s-0.7-0.2-0.9-0.3l0.7-1.4c0.2,0.2,0.5,0.3,0.8,0.3c0.3,0.1,0.6,0.1,0.9,0.1
		c0.2,0,0.4,0,0.5-0.1c0.1,0,0.1-0.1,0.1-0.2c0-0.1-0.1-0.1-0.2-0.2c-0.1,0-0.3-0.1-0.5-0.1c-0.2,0-0.4-0.1-0.6-0.1
		s-0.4-0.1-0.6-0.2c-0.2-0.1-0.3-0.2-0.5-0.4c-0.1-0.2-0.2-0.4-0.2-0.7c0-0.4,0.1-0.8,0.4-1.1c0.3-0.3,0.6-0.5,1-0.6
		c0.4-0.1,0.9-0.2,1.4-0.2c0.4,0,0.7,0,1.1,0.1c0.3,0.1,0.6,0.2,0.9,0.3l-0.7,1.4c-0.3-0.2-0.5-0.3-0.8-0.3c-0.3,0-0.5-0.1-0.7-0.1
		c-0.2,0-0.4,0-0.5,0.1c-0.1,0.1-0.1,0.1-0.1,0.2c0,0.1,0.1,0.1,0.2,0.2c0.1,0,0.3,0.1,0.5,0.1s0.4,0.1,0.6,0.1
		c0.2,0,0.4,0.1,0.6,0.2c0.2,0.1,0.3,0.2,0.5,0.4c0.1,0.2,0.2,0.4,0.2,0.7c0,0.4-0.1,0.8-0.4,1c-0.3,0.3-0.6,0.5-1,0.6
		S118.3,50.4,117.8,50.4z"/>
	<path class="st0" d="M73.6,61.4c-0.5,0-1-0.1-1.4-0.3s-0.7-0.5-0.9-0.8c-0.2-0.3-0.3-0.8-0.3-1.2c0-0.5,0.1-1,0.4-1.5
		c0.3-0.4,0.6-0.8,1.1-1c0.5-0.2,1-0.4,1.6-0.4c0.6,0,1.1,0.1,1.6,0.4c0.4,0.3,0.7,0.6,0.9,1.1l-1.8,0.8c-0.1-0.2-0.2-0.4-0.3-0.5
		c-0.1-0.1-0.3-0.1-0.5-0.1c-0.2,0-0.3,0-0.5,0.1c-0.1,0.1-0.3,0.2-0.3,0.4c-0.1,0.2-0.1,0.4-0.1,0.6c0,0.2,0.1,0.4,0.2,0.6
		c0.1,0.2,0.3,0.2,0.6,0.2c0.2,0,0.4,0,0.5-0.1c0.2-0.1,0.3-0.3,0.4-0.5l1.5,0.9c-0.2,0.4-0.6,0.8-1,1
		C74.7,61.2,74.2,61.4,73.6,61.4z"/>
	<path class="st0" d="M79.1,61.4c-0.5,0-1-0.1-1.4-0.3c-0.4-0.2-0.7-0.5-0.9-0.8s-0.3-0.8-0.3-1.2c0-0.5,0.1-1,0.4-1.5
		c0.3-0.4,0.6-0.8,1.1-1c0.5-0.2,1-0.4,1.6-0.4c0.6,0,1,0.1,1.4,0.3s0.7,0.5,0.9,0.8s0.3,0.7,0.3,1.2c0,0.5-0.1,1-0.4,1.5
		c-0.3,0.4-0.6,0.8-1.1,1C80.3,61.2,79.7,61.4,79.1,61.4z M79.2,59.8c0.2,0,0.3,0,0.5-0.1s0.2-0.2,0.3-0.4c0.1-0.2,0.1-0.4,0.1-0.6
		c0-0.2-0.1-0.4-0.2-0.6c-0.1-0.2-0.3-0.2-0.5-0.2c-0.2,0-0.3,0-0.5,0.1c-0.1,0.1-0.2,0.2-0.3,0.4c-0.1,0.2-0.1,0.4-0.1,0.6
		s0.1,0.4,0.2,0.6S79,59.8,79.2,59.8z"/>
	<path class="st0" d="M86.7,56.2c0.4,0,0.8,0.1,1.1,0.3c0.3,0.2,0.5,0.4,0.6,0.8c0.1,0.3,0.1,0.8,0,1.3l-0.5,2.8h-2.1l0.5-2.5
		c0.1-0.3,0-0.5,0-0.6c-0.1-0.1-0.2-0.2-0.4-0.2c-0.2,0-0.4,0.1-0.6,0.2c-0.2,0.2-0.3,0.4-0.3,0.7l-0.5,2.4h-2.1l1-5h1.9L85,57.7
		l-0.2-0.4c0.2-0.4,0.5-0.7,0.9-0.8C86,56.3,86.4,56.2,86.7,56.2z"/>
	<path class="st0" d="M91.5,61.3l1.4-6.8h2.1l-1.4,6.8H91.5z"/>
	<path class="st0" d="M96.8,61.4c-0.3,0-0.7-0.1-1-0.3c-0.3-0.2-0.6-0.4-0.8-0.8c-0.2-0.3-0.3-0.8-0.3-1.3c0-0.4,0.1-0.8,0.2-1.1
		c0.1-0.3,0.3-0.6,0.6-0.9c0.2-0.3,0.5-0.5,0.8-0.6c0.3-0.1,0.7-0.2,1-0.2c0.4,0,0.7,0.1,1,0.2s0.5,0.4,0.6,0.8
		c0.1,0.4,0.1,0.9,0,1.5c-0.1,0.5-0.2,1-0.4,1.4c-0.2,0.4-0.5,0.7-0.8,0.9S97.2,61.4,96.8,61.4z M97.5,59.7c0.2,0,0.3,0,0.5-0.1
		c0.1-0.1,0.2-0.2,0.3-0.4c0.1-0.2,0.1-0.4,0.1-0.6s-0.1-0.4-0.2-0.6c-0.1-0.1-0.3-0.2-0.5-0.2c-0.2,0-0.3,0-0.5,0.1
		c-0.1,0.1-0.2,0.2-0.3,0.4c-0.1,0.2-0.1,0.4-0.1,0.6c0,0.2,0.1,0.4,0.2,0.6C97.1,59.7,97.3,59.7,97.5,59.7z M98,61.3l0.1-0.7
		l0.3-1.8l0.3-1.8l0.1-0.7h2.1l-1,5H98z"/>
	<path class="st0" d="M70.6,72.2l1-5h2.1l-1,5H70.6z M72.9,66.8c-0.4,0-0.6-0.1-0.9-0.3c-0.2-0.2-0.3-0.4-0.3-0.7
		c0-0.3,0.1-0.6,0.4-0.8s0.6-0.3,1-0.3c0.4,0,0.6,0.1,0.9,0.3s0.3,0.4,0.3,0.7c0,0.3-0.1,0.6-0.4,0.8C73.6,66.7,73.3,66.8,72.9,66.8
		z"/>
	<path class="st0" d="M77.9,67.1c0.4,0,0.8,0.1,1.1,0.3c0.3,0.2,0.5,0.4,0.6,0.8c0.1,0.3,0.1,0.8,0,1.3l-0.5,2.8H77l0.5-2.5
		c0.1-0.3,0-0.5,0-0.6c-0.1-0.1-0.2-0.2-0.4-0.2c-0.2,0-0.4,0.1-0.6,0.2c-0.2,0.2-0.3,0.4-0.3,0.7l-0.5,2.4h-2.1l1-5h1.9l-0.3,1.4
		L76,68.2c0.2-0.4,0.5-0.7,0.9-0.8C77.2,67.2,77.6,67.1,77.9,67.1z"/>
	<path class="st0" d="M82.4,72.3c-0.3,0-0.7-0.1-1-0.3c-0.3-0.2-0.6-0.4-0.8-0.8c-0.2-0.3-0.3-0.8-0.3-1.3c0-0.4,0.1-0.8,0.2-1.1
		s0.3-0.6,0.6-0.9s0.5-0.5,0.8-0.6c0.3-0.1,0.7-0.2,1-0.2c0.3,0,0.6,0.1,0.9,0.2c0.3,0.1,0.5,0.3,0.6,0.6c0.1,0.3,0.2,0.6,0.2,1.1
		c0,0.4,0,0.8-0.1,1.2c-0.1,0.4-0.2,0.8-0.4,1.1c-0.2,0.3-0.4,0.6-0.7,0.8S82.8,72.3,82.4,72.3z M83.2,70.7c0.2,0,0.3,0,0.5-0.1
		c0.1-0.1,0.2-0.2,0.3-0.4c0.1-0.2,0.1-0.4,0.1-0.6S84,69.1,83.9,69c-0.1-0.1-0.3-0.2-0.5-0.2c-0.2,0-0.3,0-0.5,0.1
		c-0.1,0.1-0.2,0.2-0.3,0.4c-0.1,0.2-0.1,0.4-0.1,0.6c0,0.2,0.1,0.4,0.2,0.6C82.7,70.6,82.9,70.7,83.2,70.7z M83.6,72.2l0.1-0.7
		l0.3-1.8l0.3-1.8l0.5-2.5h2.1l-1.4,6.8H83.6z"/>
	<path class="st0" d="M88.6,72.3c-0.4,0-0.8-0.1-1-0.3c-0.3-0.2-0.5-0.4-0.6-0.8s-0.1-0.8,0-1.3l0.5-2.8h2.1L89,69.7
		c-0.1,0.3,0,0.5,0,0.6c0.1,0.1,0.2,0.2,0.4,0.2c0.2,0,0.4-0.1,0.6-0.2c0.2-0.2,0.3-0.4,0.3-0.7l0.5-2.4h2.1l-1,5H90l0.3-1.4
		l0.2,0.4c-0.2,0.4-0.5,0.7-0.9,0.8C89.3,72.2,89,72.3,88.6,72.3z"/>
	<path class="st0" d="M100.3,67.1c0.4,0,0.7,0.1,1,0.3c0.3,0.2,0.5,0.4,0.6,0.8c0.1,0.3,0.1,0.8,0,1.3l-0.5,2.8h-2.1l0.5-2.5
		c0.1-0.3,0-0.5,0-0.7c-0.1-0.1-0.2-0.2-0.4-0.2c-0.2,0-0.4,0.1-0.5,0.2s-0.2,0.4-0.3,0.7l-0.5,2.5h-2.1l0.5-2.5
		c0.1-0.3,0-0.5,0-0.7c-0.1-0.1-0.2-0.2-0.4-0.2c-0.2,0-0.4,0.1-0.5,0.2c-0.1,0.1-0.2,0.4-0.3,0.7l-0.5,2.4h-2.1l1-5h1.9l-0.2,1
		l-0.3,0c0.2-0.4,0.5-0.7,0.8-0.8c0.3-0.2,0.7-0.3,1-0.3c0.3,0,0.5,0.1,0.8,0.2s0.4,0.3,0.6,0.5s0.3,0.5,0.3,0.8l-0.5-0.2
		c0.2-0.4,0.5-0.7,0.9-1C99.5,67.3,99.9,67.1,100.3,67.1z"/>
	<path class="st0" d="M105.4,72.3c-0.5,0-1-0.1-1.4-0.3s-0.7-0.5-1-0.8c-0.2-0.3-0.3-0.8-0.3-1.2c0-0.5,0.1-1,0.4-1.5
		c0.3-0.4,0.6-0.8,1.1-1c0.5-0.2,1-0.4,1.6-0.4c0.5,0,1,0.1,1.4,0.3c0.4,0.2,0.7,0.4,0.9,0.8c0.2,0.3,0.3,0.7,0.3,1.1
		c0,0.2,0,0.3,0,0.4c0,0.1,0,0.3-0.1,0.4h-3.9l0.2-1h2.7l-0.9,0.3c0-0.2,0-0.4,0-0.5s-0.1-0.2-0.3-0.3c-0.1-0.1-0.3-0.1-0.4-0.1
		c-0.2,0-0.4,0.1-0.6,0.2s-0.3,0.3-0.3,0.5s-0.1,0.4-0.1,0.7c0,0.3,0.1,0.5,0.3,0.7c0.2,0.1,0.4,0.2,0.7,0.2c0.2,0,0.4,0,0.6-0.1
		s0.4-0.1,0.5-0.3l0.9,1.3c-0.3,0.2-0.7,0.4-1.1,0.5C106.1,72.3,105.7,72.3,105.4,72.3z"/>
	<path class="st0" d="M112.6,67.1c0.4,0,0.8,0.1,1.1,0.3c0.3,0.2,0.5,0.4,0.6,0.8c0.1,0.3,0.1,0.8,0,1.3l-0.5,2.8h-2.1l0.5-2.5
		c0.1-0.3,0-0.5,0-0.6c-0.1-0.1-0.2-0.2-0.4-0.2c-0.2,0-0.4,0.1-0.6,0.2c-0.2,0.2-0.3,0.4-0.3,0.7l-0.5,2.4h-2.1l1-5h1.9l-0.3,1.4
		l-0.2-0.4c0.2-0.4,0.5-0.7,0.9-0.8C112,67.2,112.3,67.1,112.6,67.1z"/>
	<path class="st0" d="M114.9,69l0.3-1.5h3.8l-0.3,1.5H114.9z M117.1,72.3c-0.4,0-0.8-0.1-1.1-0.2c-0.3-0.2-0.5-0.4-0.6-0.7
		c-0.1-0.3-0.1-0.7-0.1-1.1l0.8-4.2h2.1l-0.8,4.2c0,0.2,0,0.3,0.1,0.4c0.1,0.1,0.2,0.1,0.3,0.1c0.1,0,0.2,0,0.2,0
		c0.1,0,0.1-0.1,0.2-0.1l0.2,1.4c-0.2,0.1-0.4,0.2-0.6,0.2C117.6,72.3,117.3,72.3,117.1,72.3z"/>
	<path class="st0" d="M121.1,72.3c-0.3,0-0.7-0.1-1-0.3c-0.3-0.2-0.6-0.4-0.8-0.8c-0.2-0.3-0.3-0.8-0.3-1.3c0-0.4,0.1-0.8,0.2-1.1
		c0.1-0.3,0.3-0.6,0.6-0.9c0.2-0.3,0.5-0.5,0.8-0.6c0.3-0.1,0.7-0.2,1-0.2c0.4,0,0.7,0.1,1,0.2s0.5,0.4,0.6,0.8
		c0.1,0.4,0.1,0.9,0,1.5c-0.1,0.5-0.2,1-0.4,1.4c-0.2,0.4-0.5,0.7-0.8,0.9S121.5,72.3,121.1,72.3z M121.8,70.7c0.2,0,0.3,0,0.5-0.1
		c0.1-0.1,0.2-0.2,0.3-0.4c0.1-0.2,0.1-0.4,0.1-0.6s-0.1-0.4-0.2-0.6c-0.1-0.1-0.3-0.2-0.5-0.2c-0.2,0-0.3,0-0.5,0.1
		c-0.1,0.1-0.2,0.2-0.3,0.4c-0.1,0.2-0.1,0.4-0.1,0.6c0,0.2,0.1,0.4,0.2,0.6C121.4,70.6,121.6,70.7,121.8,70.7z M122.3,72.2l0.1-0.7
		l0.3-1.8l0.3-1.8l0.1-0.7h2.1l-1,5H122.3z"/>
	<path class="st0" d="M125.2,72.2l1-5h1.9l-0.3,1.4l-0.2-0.4c0.2-0.4,0.5-0.7,0.9-0.8c0.4-0.2,0.8-0.3,1.3-0.3l-0.4,1.8
		c-0.1,0-0.2,0-0.2,0c-0.1,0-0.1,0-0.2,0c-0.3,0-0.6,0.1-0.8,0.2s-0.4,0.4-0.4,0.8l-0.5,2.3H125.2z"/>
	<path class="st0" d="M129.3,72.2l1-5h2.1l-1,5H129.3z M131.6,66.8c-0.4,0-0.6-0.1-0.9-0.3c-0.2-0.2-0.3-0.4-0.3-0.7
		c0-0.3,0.1-0.6,0.4-0.8s0.6-0.3,1-0.3c0.4,0,0.6,0.1,0.9,0.3s0.3,0.4,0.3,0.7c0,0.3-0.1,0.6-0.4,0.8
		C132.3,66.7,132,66.8,131.6,66.8z"/>
	<path class="st0" d="M134.6,72.3c-0.3,0-0.7-0.1-1-0.3c-0.3-0.2-0.6-0.4-0.8-0.8c-0.2-0.3-0.3-0.8-0.3-1.3c0-0.4,0.1-0.8,0.2-1.1
		c0.1-0.3,0.3-0.6,0.6-0.9c0.2-0.3,0.5-0.5,0.8-0.6c0.3-0.1,0.7-0.2,1-0.2c0.4,0,0.7,0.1,1,0.2s0.5,0.4,0.6,0.8
		c0.1,0.4,0.1,0.9,0,1.5c-0.1,0.5-0.2,1-0.4,1.4c-0.2,0.4-0.5,0.7-0.8,0.9S135,72.3,134.6,72.3z M135.3,70.7c0.2,0,0.3,0,0.5-0.1
		c0.1-0.1,0.2-0.2,0.3-0.4c0.1-0.2,0.1-0.4,0.1-0.6s-0.1-0.4-0.2-0.6c-0.1-0.1-0.3-0.2-0.5-0.2c-0.2,0-0.3,0-0.5,0.1
		c-0.1,0.1-0.2,0.2-0.3,0.4c-0.1,0.2-0.1,0.4-0.1,0.6c0,0.2,0.1,0.4,0.2,0.6C134.9,70.6,135.1,70.7,135.3,70.7z M135.8,72.2l0.1-0.7
		l0.3-1.8l0.3-1.8l0.1-0.7h2.1l-1,5H135.8z"/>
	<path class="st0" d="M72.9,83.3c-0.3,0-0.7-0.1-1-0.3c-0.3-0.2-0.6-0.4-0.8-0.8c-0.2-0.3-0.3-0.8-0.3-1.3c0-0.4,0.1-0.8,0.2-1.1
		c0.1-0.3,0.3-0.6,0.6-0.9c0.2-0.3,0.5-0.5,0.8-0.6c0.3-0.1,0.7-0.2,1-0.2c0.4,0,0.7,0.1,1,0.2s0.5,0.4,0.6,0.8
		c0.1,0.4,0.1,0.9,0,1.5c-0.1,0.5-0.2,1-0.4,1.4c-0.2,0.4-0.5,0.7-0.8,0.9S73.3,83.3,72.9,83.3z M73.7,81.6c0.2,0,0.3,0,0.5-0.1
		c0.1-0.1,0.2-0.2,0.3-0.4c0.1-0.2,0.1-0.4,0.1-0.6s-0.1-0.4-0.2-0.6c-0.1-0.1-0.3-0.2-0.5-0.2c-0.2,0-0.3,0-0.5,0.1
		c-0.1,0.1-0.2,0.2-0.3,0.4c-0.1,0.2-0.1,0.4-0.1,0.6c0,0.2,0.1,0.4,0.2,0.6C73.3,81.6,73.5,81.6,73.7,81.6z M74.2,83.2l0.1-0.7
		l0.3-1.8l0.3-1.8l0.1-0.7h2.1l-1,5H74.2z"/>
	<path class="st0" d="M79.9,80l0.3-1.5H84L83.7,80H79.9z M82.1,83.3c-0.4,0-0.8-0.1-1.1-0.2c-0.3-0.2-0.5-0.4-0.6-0.7
		c-0.1-0.3-0.1-0.7-0.1-1.1l0.8-4.2h2.1l-0.8,4.2c0,0.2,0,0.3,0.1,0.4c0.1,0.1,0.2,0.1,0.3,0.1c0.1,0,0.2,0,0.2,0
		c0.1,0,0.1-0.1,0.2-0.1l0.2,1.4c-0.2,0.1-0.4,0.2-0.6,0.2C82.6,83.2,82.4,83.3,82.1,83.3z"/>
	<path class="st0" d="M86.1,83.3c-0.4,0-0.8-0.1-1-0.3c-0.3-0.2-0.5-0.4-0.6-0.8s-0.1-0.8,0-1.3l0.5-2.8H87l-0.5,2.5
		c-0.1,0.3,0,0.5,0,0.6c0.1,0.1,0.2,0.2,0.4,0.2c0.2,0,0.4-0.1,0.6-0.2c0.2-0.2,0.3-0.4,0.3-0.7l0.5-2.4h2.1l-1,5h-1.9l0.3-1.4
		l0.2,0.4c-0.2,0.4-0.5,0.7-0.9,0.8C86.8,83.2,86.4,83.3,86.1,83.3z"/>
	<path class="st0" d="M95.4,85c-0.5,0-1-0.1-1.4-0.2c-0.4-0.1-0.8-0.3-1.1-0.5l0.9-1.4c0.2,0.2,0.4,0.3,0.7,0.4
		c0.3,0.1,0.6,0.1,0.9,0.1c0.4,0,0.7-0.1,0.9-0.3c0.2-0.2,0.3-0.4,0.4-0.7l0.1-0.6l0.4-1.4l0.3-1.6l0.1-0.8h2l-0.8,4
		c-0.2,1-0.6,1.7-1.2,2.2C97.1,84.8,96.3,85,95.4,85z M95.5,82.9c-0.4,0-0.7-0.1-1-0.3s-0.6-0.4-0.8-0.7c-0.2-0.3-0.3-0.7-0.3-1.2
		c0-0.4,0.1-0.7,0.2-1c0.1-0.3,0.3-0.6,0.6-0.8c0.2-0.2,0.5-0.4,0.9-0.6c0.3-0.1,0.7-0.2,1-0.2s0.7,0.1,1,0.2
		c0.3,0.1,0.5,0.4,0.6,0.7s0.1,0.8,0,1.4c-0.1,0.5-0.2,1-0.4,1.4c-0.2,0.4-0.4,0.6-0.7,0.8C96.2,82.8,95.8,82.9,95.5,82.9z
		 M96.1,81.3c0.2,0,0.3,0,0.5-0.1s0.2-0.2,0.3-0.3c0.1-0.1,0.1-0.3,0.1-0.5c0-0.2-0.1-0.3-0.2-0.5c-0.1-0.1-0.3-0.2-0.5-0.2
		c-0.2,0-0.3,0-0.5,0.1s-0.2,0.2-0.3,0.3c-0.1,0.1-0.1,0.3-0.1,0.5c0,0.2,0.1,0.3,0.2,0.5C95.7,81.2,95.9,81.3,96.1,81.3z"/>
	<path class="st0" d="M101.7,83.3c-0.4,0-0.8-0.1-1-0.3c-0.3-0.2-0.5-0.4-0.6-0.8s-0.1-0.8,0-1.3l0.5-2.8h2.1l-0.5,2.5
		c-0.1,0.3,0,0.5,0,0.6c0.1,0.1,0.2,0.2,0.4,0.2c0.2,0,0.4-0.1,0.6-0.2c0.2-0.2,0.3-0.4,0.3-0.7l0.5-2.4h2.1l-1,5h-1.9l0.3-1.4
		l0.2,0.4c-0.2,0.4-0.5,0.7-0.9,0.8C102.4,83.2,102,83.3,101.7,83.3z"/>
	<path class="st0" d="M108,83.3c-0.4,0-0.9,0-1.3-0.1s-0.7-0.2-0.9-0.3l0.7-1.4c0.2,0.2,0.5,0.3,0.8,0.3c0.3,0.1,0.6,0.1,0.9,0.1
		c0.2,0,0.4,0,0.5-0.1c0.1,0,0.1-0.1,0.1-0.2c0-0.1-0.1-0.1-0.2-0.2c-0.1,0-0.3-0.1-0.5-0.1c-0.2,0-0.4-0.1-0.6-0.1
		s-0.4-0.1-0.6-0.2c-0.2-0.1-0.3-0.2-0.5-0.4c-0.1-0.2-0.2-0.4-0.2-0.7c0-0.4,0.1-0.8,0.4-1.1c0.3-0.3,0.6-0.5,1-0.6
		c0.4-0.1,0.9-0.2,1.4-0.2c0.4,0,0.7,0,1.1,0.1c0.3,0.1,0.6,0.2,0.9,0.3l-0.7,1.4c-0.3-0.2-0.5-0.3-0.8-0.3c-0.3,0-0.5-0.1-0.7-0.1
		c-0.2,0-0.4,0-0.5,0.1c-0.1,0.1-0.1,0.1-0.1,0.2c0,0.1,0.1,0.1,0.2,0.2c0.1,0,0.3,0.1,0.5,0.1s0.4,0.1,0.6,0.1
		c0.2,0,0.4,0.1,0.6,0.2c0.2,0.1,0.3,0.2,0.5,0.4c0.1,0.2,0.2,0.4,0.2,0.7c0,0.4-0.1,0.8-0.4,1c-0.3,0.3-0.6,0.5-1,0.6
		S108.5,83.3,108,83.3z"/>
	<path class="st0" d="M111.3,80l0.3-1.5h3.8L115,80H111.3z M113.5,83.3c-0.4,0-0.8-0.1-1.1-0.2c-0.3-0.2-0.5-0.4-0.6-0.7
		c-0.1-0.3-0.1-0.7-0.1-1.1l0.8-4.2h2.1l-0.8,4.2c0,0.2,0,0.3,0.1,0.4c0.1,0.1,0.2,0.1,0.3,0.1c0.1,0,0.2,0,0.2,0
		c0.1,0,0.1-0.1,0.2-0.1l0.2,1.4c-0.2,0.1-0.4,0.2-0.6,0.2C114,83.2,113.7,83.3,113.5,83.3z"/>
	<path class="st0" d="M118.1,83.3c-0.5,0-1-0.1-1.4-0.3c-0.4-0.2-0.7-0.5-0.9-0.8s-0.3-0.8-0.3-1.2c0-0.5,0.1-1,0.4-1.5
		c0.3-0.4,0.6-0.8,1.1-1c0.5-0.2,1-0.4,1.6-0.4c0.6,0,1,0.1,1.4,0.3s0.7,0.5,0.9,0.8s0.3,0.7,0.3,1.2c0,0.5-0.1,1-0.4,1.5
		c-0.3,0.4-0.6,0.8-1.1,1C119.2,83.1,118.7,83.3,118.1,83.3z M118.2,81.7c0.2,0,0.3,0,0.5-0.1s0.2-0.2,0.3-0.4
		c0.1-0.2,0.1-0.4,0.1-0.6c0-0.2-0.1-0.4-0.2-0.6c-0.1-0.2-0.3-0.2-0.5-0.2c-0.2,0-0.3,0-0.5,0.1c-0.1,0.1-0.2,0.2-0.3,0.4
		c-0.1,0.2-0.1,0.4-0.1,0.6s0.1,0.4,0.2,0.6S118,81.7,118.2,81.7z"/>
	<path class="st0" d="M122.4,83.3c-0.3,0-0.6-0.1-0.8-0.3c-0.2-0.2-0.3-0.5-0.3-0.8c0-0.4,0.1-0.7,0.4-0.9c0.3-0.2,0.6-0.3,0.9-0.3
		c0.3,0,0.6,0.1,0.8,0.3c0.2,0.2,0.3,0.5,0.3,0.8c0,0.3-0.1,0.5-0.2,0.7c-0.1,0.2-0.3,0.3-0.5,0.4S122.6,83.3,122.4,83.3z"/>
</g>
</svg>
