<?xml version="1.0" encoding="utf-8"?>
<!-- Generator: Adobe Illustrator 24.1.2, SVG Export Plug-In . SVG Version: 6.00 Build 0)  -->
<svg version="1.1" id="Layer_1" xmlns="http://www.w3.org/2000/svg" xmlns:xlink="http://www.w3.org/1999/xlink" x="0px" y="0px"
	 viewBox="0 0 153.2 107.3" style="enable-background:new 0 0 153.2 107.3;" xml:space="preserve">
<style type="text/css">
	.st0{fill:#FFFDFD;}
	.st1{fill:#FF4D52;}
	.st2{fill:#FFFFFF;}
</style>
<g>
	<path class="st0" d="M86.2,107.3c-29.6,0-53.7-24.1-53.7-53.7C32.6,24.1,56.6,0,86.2,0s53.7,24.1,53.7,53.7
		C139.9,83.3,115.8,107.3,86.2,107.3z M86.2,2.3c-28.3,0-51.4,23.1-51.4,51.4c0,28.3,23.1,51.4,51.4,51.4s51.4-23.1,51.4-51.4
		C137.6,25.3,114.6,2.3,86.2,2.3z"/>
</g>
<g>
	<polygon class="st1" points="26.1,89 26.1,40.9 15,40.9 15,21.1 51.2,21.1 51.2,89 	"/>
	<path class="st2" d="M49.5,22.8v64.5H27.7V39.2H16.7V22.8H49.5 M52.8,19.4h-3.4H16.7h-3.4v3.4v16.4v3.4h3.4h7.7v44.8v3.4h3.4h21.8
		h3.4v-3.4V22.8V19.4L52.8,19.4z"/>
</g>
<g>
	<path class="st0" d="M60.1,45.6c-0.4,0-0.8,0-1.2-0.1c-0.4-0.1-0.7-0.1-1-0.2s-0.6-0.2-0.8-0.4l0.9-1.7c0.3,0.1,0.5,0.3,0.8,0.4
		c0.3,0.1,0.5,0.2,0.8,0.2c0.3,0,0.5,0.1,0.8,0.1c0.2,0,0.4,0,0.5,0c0.1,0,0.2-0.1,0.3-0.1c0.1-0.1,0.1-0.1,0.1-0.2
		c0-0.1-0.1-0.2-0.2-0.3s-0.3-0.1-0.5-0.2c-0.2-0.1-0.4-0.1-0.6-0.2s-0.5-0.1-0.7-0.2c-0.2-0.1-0.4-0.2-0.6-0.3
		c-0.2-0.1-0.3-0.3-0.5-0.5C58,41.6,58,41.4,58,41.1c0-0.5,0.1-1,0.4-1.3c0.3-0.4,0.7-0.7,1.2-0.9s1.1-0.3,1.8-0.3
		c0.5,0,1,0,1.4,0.1c0.4,0.1,0.8,0.2,1.1,0.4l-0.8,1.7c-0.3-0.2-0.6-0.3-0.9-0.4s-0.6-0.1-1-0.1c-0.2,0-0.4,0-0.6,0.1
		c-0.1,0-0.3,0.1-0.3,0.2c-0.1,0.1-0.1,0.1-0.1,0.2c0,0.1,0.1,0.2,0.2,0.3c0.1,0.1,0.3,0.1,0.5,0.2c0.2,0,0.4,0.1,0.6,0.2
		s0.5,0.1,0.7,0.2c0.2,0.1,0.4,0.2,0.6,0.3c0.2,0.1,0.3,0.3,0.5,0.5s0.2,0.5,0.2,0.8c0,0.5-0.1,0.9-0.4,1.3
		c-0.3,0.4-0.7,0.7-1.2,0.9C61.4,45.5,60.8,45.6,60.1,45.6z"/>
	<path class="st0" d="M66.8,45.6c-0.6,0-1.1-0.1-1.5-0.3s-0.8-0.5-1-0.9c-0.2-0.4-0.4-0.8-0.4-1.3c0-0.6,0.1-1.1,0.4-1.6
		s0.7-0.8,1.2-1.1c0.5-0.3,1.1-0.4,1.7-0.4c0.6,0,1.1,0.1,1.5,0.3c0.4,0.2,0.8,0.5,1,0.9s0.4,0.8,0.4,1.3c0,0.6-0.1,1.1-0.4,1.6
		c-0.3,0.5-0.7,0.8-1.2,1.1S67.4,45.6,66.8,45.6z M66.9,43.9c0.2,0,0.4,0,0.5-0.2c0.1-0.1,0.3-0.2,0.3-0.4c0.1-0.2,0.1-0.4,0.1-0.7
		c0-0.2-0.1-0.4-0.2-0.6s-0.3-0.3-0.6-0.3c-0.2,0-0.4,0-0.5,0.1c-0.1,0.1-0.3,0.2-0.3,0.4c-0.1,0.2-0.1,0.4-0.1,0.7s0.1,0.5,0.2,0.6
		C66.4,43.8,66.6,43.9,66.9,43.9z"/>
	<path class="st0" d="M70.2,45.5l1.4-7.2h2.2l-1.4,7.2H70.2z"/>
	<path class="st0" d="M73.3,45.5l1.1-5.3h2.2l-1.1,5.3H73.3z M75.7,39.8c-0.4,0-0.7-0.1-0.9-0.3c-0.2-0.2-0.3-0.4-0.3-0.7
		c0-0.3,0.1-0.6,0.4-0.9c0.3-0.2,0.6-0.3,1-0.3c0.4,0,0.7,0.1,0.9,0.3c0.2,0.2,0.3,0.4,0.3,0.7c0,0.4-0.1,0.7-0.4,0.9
		S76.1,39.8,75.7,39.8z"/>
	<path class="st0" d="M79.6,45.6c-0.6,0-1.1-0.1-1.5-0.3s-0.8-0.5-1-0.9c-0.2-0.4-0.4-0.8-0.4-1.3c0-0.6,0.1-1.1,0.4-1.6
		s0.7-0.8,1.2-1.1c0.5-0.3,1.1-0.4,1.7-0.4c0.6,0,1.2,0.1,1.6,0.4s0.8,0.7,1,1.1l-1.9,0.9c-0.1-0.2-0.2-0.4-0.4-0.5
		c-0.2-0.1-0.3-0.2-0.5-0.2c-0.2,0-0.4,0-0.5,0.1c-0.2,0.1-0.3,0.2-0.4,0.4c-0.1,0.2-0.1,0.4-0.1,0.6c0,0.3,0.1,0.5,0.2,0.6
		c0.1,0.2,0.3,0.2,0.6,0.2c0.2,0,0.4-0.1,0.6-0.2c0.2-0.1,0.3-0.3,0.4-0.5l1.6,0.9c-0.3,0.5-0.6,0.8-1.1,1.1S80.2,45.6,79.6,45.6z"
		/>
	<path class="st0" d="M82.4,45.5l1.1-5.3h2.2l-1.1,5.3H82.4z M84.8,39.8c-0.4,0-0.7-0.1-0.9-0.3c-0.2-0.2-0.3-0.4-0.3-0.7
		c0-0.3,0.1-0.6,0.4-0.9c0.3-0.2,0.6-0.3,1-0.3c0.4,0,0.7,0.1,0.9,0.3c0.2,0.2,0.3,0.4,0.3,0.7c0,0.4-0.1,0.7-0.4,0.9
		S85.2,39.8,84.8,39.8z"/>
	<path class="st0" d="M85.8,42.1l0.3-1.6h4l-0.3,1.6H85.8z M88.1,45.6c-0.5,0-0.8-0.1-1.2-0.3c-0.3-0.2-0.5-0.4-0.7-0.7
		c-0.1-0.3-0.1-0.7-0.1-1.2l0.9-4.4h2.2l-0.9,4.4c0,0.2,0,0.3,0.1,0.4c0.1,0.1,0.2,0.1,0.3,0.1c0.1,0,0.2,0,0.2,0
		c0.1,0,0.2-0.1,0.2-0.1l0.3,1.5c-0.2,0.1-0.4,0.2-0.7,0.2C88.6,45.6,88.4,45.6,88.1,45.6z"/>
	<path class="st0" d="M92.3,45.6c-0.3,0-0.7-0.1-1-0.3s-0.6-0.5-0.8-0.8c-0.2-0.4-0.3-0.8-0.3-1.3c0-0.4,0.1-0.8,0.2-1.2
		c0.1-0.4,0.4-0.7,0.6-1s0.6-0.5,0.9-0.6c0.3-0.2,0.7-0.2,1.1-0.2c0.4,0,0.8,0.1,1.1,0.3c0.3,0.2,0.5,0.5,0.7,0.8
		c0.1,0.4,0.1,0.9,0,1.6c-0.1,0.6-0.2,1.1-0.5,1.5c-0.2,0.4-0.5,0.7-0.8,0.9C93.1,45.5,92.7,45.6,92.3,45.6z M93.1,43.9
		c0.2,0,0.4,0,0.5-0.2c0.1-0.1,0.3-0.2,0.3-0.4c0.1-0.2,0.1-0.4,0.1-0.6S94,42.2,93.9,42c-0.1-0.2-0.3-0.2-0.6-0.2
		c-0.2,0-0.4,0-0.5,0.1c-0.1,0.1-0.3,0.2-0.3,0.4s-0.1,0.4-0.1,0.6s0.1,0.4,0.2,0.6C92.7,43.8,92.9,43.9,93.1,43.9z M93.6,45.5
		l0.1-0.7l0.4-1.9l0.3-1.9l0.1-0.7h2.2l-1.1,5.3H93.6z"/>
	<path class="st0" d="M98.9,45.6c-0.5,0-0.9,0-1.3-0.1c-0.4-0.1-0.7-0.2-1-0.3l0.8-1.5c0.3,0.2,0.6,0.3,0.9,0.4s0.6,0.1,0.9,0.1
		c0.2,0,0.4,0,0.5-0.1c0.1,0,0.1-0.1,0.1-0.2c0-0.1-0.1-0.1-0.2-0.2s-0.3-0.1-0.5-0.1c-0.2,0-0.4-0.1-0.6-0.1
		c-0.2-0.1-0.4-0.1-0.6-0.2s-0.4-0.2-0.5-0.4s-0.2-0.4-0.2-0.7c0-0.5,0.1-0.8,0.4-1.1c0.3-0.3,0.6-0.5,1.1-0.7
		c0.5-0.1,1-0.2,1.5-0.2c0.4,0,0.8,0,1.1,0.1s0.7,0.2,1,0.3l-0.8,1.5c-0.3-0.2-0.6-0.3-0.8-0.3s-0.5-0.1-0.7-0.1
		c-0.3,0-0.4,0-0.5,0.1s-0.1,0.1-0.1,0.2c0,0.1,0.1,0.1,0.2,0.2c0.1,0,0.3,0.1,0.5,0.1c0.2,0,0.4,0.1,0.6,0.1c0.2,0,0.4,0.1,0.6,0.2
		c0.2,0.1,0.4,0.2,0.5,0.4c0.1,0.2,0.2,0.4,0.2,0.7c0,0.4-0.1,0.8-0.4,1.1s-0.6,0.5-1.1,0.7C99.9,45.5,99.4,45.6,98.9,45.6z"/>
	<path class="st0" d="M107.3,45.6c-0.4,0-0.8-0.1-1.1-0.3c-0.3-0.2-0.5-0.5-0.7-0.8s-0.1-0.8,0-1.4l0.6-2.9h2.2l-0.5,2.7
		c-0.1,0.3,0,0.5,0,0.7c0.1,0.2,0.2,0.2,0.5,0.2c0.2,0,0.5-0.1,0.6-0.2c0.2-0.2,0.3-0.4,0.3-0.8l0.5-2.5h2.2l-1.1,5.3h-2.1l0.3-1.5
		l0.3,0.4c-0.3,0.4-0.6,0.7-0.9,0.9C108,45.5,107.7,45.6,107.3,45.6z"/>
	<path class="st0" d="M116.4,40.1c0.4,0,0.8,0.1,1.1,0.3c0.3,0.2,0.5,0.5,0.7,0.8c0.1,0.4,0.1,0.8,0,1.4l-0.6,2.9h-2.2l0.5-2.7
		c0.1-0.3,0-0.5,0-0.7c-0.1-0.2-0.2-0.2-0.5-0.2c-0.2,0-0.5,0.1-0.6,0.2c-0.2,0.2-0.3,0.4-0.4,0.8l-0.5,2.5h-2.2l1.1-5.3h2.1
		l-0.3,1.5l-0.3-0.4c0.3-0.4,0.6-0.7,0.9-0.9C115.6,40.2,116,40.1,116.4,40.1z"/>
	<path class="st0" d="M57.4,57.1l1.4-6.8h3c0.9,0,1.6,0.2,2.1,0.6c0.5,0.4,0.7,0.9,0.7,1.7c0,0.6-0.1,1.1-0.4,1.5
		c-0.3,0.4-0.7,0.8-1.2,1c-0.5,0.2-1.1,0.4-1.8,0.4H59l1.2-1l-0.5,2.7H57.4z M60.1,54.7l-0.8-1h1.9c0.3,0,0.6-0.1,0.7-0.2
		c0.2-0.2,0.3-0.4,0.3-0.7c0-0.2-0.1-0.4-0.2-0.5c-0.2-0.1-0.4-0.2-0.6-0.2h-1.8l1.2-1.1L60.1,54.7z"/>
	<path class="st0" d="M64.5,57.1l1.1-5.3h2.1l-0.3,1.5l-0.2-0.4c0.2-0.4,0.5-0.7,0.9-0.9c0.4-0.2,0.8-0.3,1.3-0.3L69,53.6
		c-0.1,0-0.2,0-0.2,0c-0.1,0-0.1,0-0.2,0c-0.4,0-0.7,0.1-0.9,0.2c-0.2,0.2-0.4,0.4-0.4,0.8l-0.5,2.4H64.5z"/>
	<path class="st0" d="M72,57.2c-0.6,0-1.1-0.1-1.5-0.3c-0.4-0.2-0.8-0.5-1-0.9c-0.2-0.4-0.4-0.8-0.4-1.3c0-0.6,0.1-1.1,0.4-1.6
		c0.3-0.5,0.7-0.8,1.1-1.1c0.5-0.3,1.1-0.4,1.7-0.4c0.6,0,1.1,0.1,1.5,0.3c0.4,0.2,0.7,0.5,0.9,0.8c0.2,0.3,0.3,0.8,0.3,1.2
		c0,0.2,0,0.3,0,0.5c0,0.2-0.1,0.3-0.1,0.4h-4.1l0.2-1.1h2.9L73,54.2c0.1-0.2,0-0.4,0-0.5c-0.1-0.1-0.1-0.3-0.3-0.3
		c-0.1-0.1-0.3-0.1-0.5-0.1c-0.3,0-0.5,0.1-0.6,0.2c-0.2,0.1-0.3,0.3-0.3,0.6c-0.1,0.2-0.1,0.5-0.1,0.7c0,0.3,0.1,0.6,0.3,0.7
		s0.4,0.2,0.8,0.2c0.2,0,0.4,0,0.6-0.1c0.2-0.1,0.4-0.2,0.6-0.3l0.9,1.3c-0.4,0.2-0.7,0.4-1.1,0.5C72.8,57.1,72.4,57.2,72,57.2z"/>
	<path class="st0" d="M77.3,57.2c-0.5,0-0.9,0-1.3-0.1c-0.4-0.1-0.7-0.2-1-0.3l0.8-1.5c0.3,0.2,0.6,0.3,0.9,0.4
		c0.3,0.1,0.6,0.1,0.9,0.1c0.2,0,0.4,0,0.5-0.1c0.1,0,0.1-0.1,0.1-0.2c0-0.1-0.1-0.1-0.2-0.2c-0.1,0-0.3-0.1-0.5-0.1
		c-0.2,0-0.4-0.1-0.6-0.1c-0.2-0.1-0.4-0.1-0.6-0.2c-0.2-0.1-0.4-0.2-0.5-0.4s-0.2-0.4-0.2-0.7c0-0.5,0.1-0.8,0.4-1.1
		c0.3-0.3,0.6-0.5,1.1-0.7c0.5-0.1,1-0.2,1.5-0.2c0.4,0,0.8,0,1.1,0.1s0.7,0.2,1,0.3l-0.8,1.5c-0.3-0.2-0.6-0.3-0.8-0.3
		s-0.5-0.1-0.7-0.1c-0.3,0-0.4,0-0.5,0.1s-0.1,0.1-0.1,0.2c0,0.1,0.1,0.1,0.2,0.2c0.1,0,0.3,0.1,0.5,0.1c0.2,0,0.4,0.1,0.6,0.1
		c0.2,0,0.4,0.1,0.6,0.2c0.2,0.1,0.4,0.2,0.5,0.4s0.2,0.4,0.2,0.7c0,0.4-0.1,0.8-0.4,1.1c-0.3,0.3-0.6,0.5-1.1,0.7
		C78.4,57.1,77.9,57.2,77.3,57.2z"/>
	<path class="st0" d="M82.9,57.2c-0.4,0-0.8-0.1-1.1-0.3c-0.3-0.2-0.5-0.5-0.7-0.8s-0.1-0.8,0-1.4l0.6-2.9h2.2l-0.5,2.7
		c-0.1,0.3,0,0.5,0,0.7s0.2,0.2,0.5,0.2c0.2,0,0.5-0.1,0.6-0.2c0.2-0.2,0.3-0.4,0.3-0.8l0.5-2.5h2.2l-1.1,5.3h-2.1l0.3-1.5l0.3,0.4
		c-0.3,0.4-0.6,0.7-0.9,0.9C83.6,57.1,83.2,57.2,82.9,57.2z"/>
	<path class="st0" d="M87,59l1.4-7.2h2.1l-0.1,0.7l-0.4,1.9l-0.3,1.9L89.1,59H87z M91.1,57.2c-0.4,0-0.8-0.1-1.1-0.3
		c-0.3-0.2-0.5-0.5-0.7-0.9c-0.1-0.4-0.1-0.9,0-1.6c0.1-0.6,0.3-1.1,0.5-1.5c0.2-0.4,0.5-0.7,0.8-0.9c0.3-0.2,0.7-0.3,1.1-0.3
		c0.4,0,0.7,0.1,1,0.3c0.3,0.2,0.6,0.5,0.8,0.8c0.2,0.4,0.3,0.8,0.3,1.3c0,0.4-0.1,0.8-0.2,1.2s-0.4,0.7-0.6,1
		c-0.3,0.3-0.6,0.5-0.9,0.6C91.9,57.1,91.5,57.2,91.1,57.2z M90.8,55.5c0.2,0,0.4,0,0.5-0.2c0.1-0.1,0.3-0.2,0.3-0.4
		s0.1-0.4,0.1-0.6s-0.1-0.4-0.2-0.6c-0.1-0.2-0.3-0.2-0.6-0.2c-0.2,0-0.4,0.1-0.5,0.2c-0.1,0.1-0.3,0.2-0.3,0.4S90,54.4,90,54.6
		s0.1,0.4,0.2,0.6C90.3,55.4,90.5,55.5,90.8,55.5z"/>
	<path class="st0" d="M96.4,57.2c-0.4,0-0.8-0.1-1.1-0.3c-0.3-0.2-0.5-0.5-0.7-0.8s-0.1-0.8,0-1.4l0.6-2.9h2.2l-0.5,2.7
		c-0.1,0.3,0,0.5,0,0.7s0.2,0.2,0.5,0.2c0.2,0,0.5-0.1,0.6-0.2c0.2-0.2,0.3-0.4,0.3-0.8l0.5-2.5h2.2l-1.1,5.3h-2.1l0.3-1.5l0.3,0.4
		c-0.3,0.4-0.6,0.7-0.9,0.9C97.1,57.1,96.7,57.2,96.4,57.2z"/>
	<path class="st0" d="M104,57.2c-0.6,0-1.1-0.1-1.5-0.3c-0.4-0.2-0.8-0.5-1-0.9c-0.2-0.4-0.4-0.8-0.4-1.3c0-0.6,0.1-1.1,0.4-1.6
		c0.3-0.5,0.7-0.8,1.1-1.1c0.5-0.3,1.1-0.4,1.7-0.4c0.6,0,1.1,0.1,1.5,0.3c0.4,0.2,0.7,0.5,0.9,0.8c0.2,0.3,0.3,0.8,0.3,1.2
		c0,0.2,0,0.3,0,0.5c0,0.2-0.1,0.3-0.1,0.4h-4.1l0.2-1.1h2.9l-0.9,0.3c0.1-0.2,0-0.4,0-0.5c-0.1-0.1-0.1-0.3-0.3-0.3
		c-0.1-0.1-0.3-0.1-0.5-0.1c-0.3,0-0.5,0.1-0.6,0.2c-0.2,0.1-0.3,0.3-0.3,0.6c-0.1,0.2-0.1,0.5-0.1,0.7c0,0.3,0.1,0.6,0.3,0.7
		s0.4,0.2,0.8,0.2c0.2,0,0.4,0,0.6-0.1c0.2-0.1,0.4-0.2,0.6-0.3l0.9,1.3c-0.4,0.2-0.7,0.4-1.1,0.5C104.8,57.1,104.4,57.2,104,57.2z"
		/>
	<path class="st0" d="M109.3,57.2c-0.5,0-0.9,0-1.3-0.1c-0.4-0.1-0.7-0.2-1-0.3l0.8-1.5c0.3,0.2,0.6,0.3,0.9,0.4
		c0.3,0.1,0.6,0.1,0.9,0.1c0.2,0,0.4,0,0.5-0.1c0.1,0,0.1-0.1,0.1-0.2c0-0.1-0.1-0.1-0.2-0.2c-0.1,0-0.3-0.1-0.5-0.1
		c-0.2,0-0.4-0.1-0.6-0.1c-0.2-0.1-0.4-0.1-0.6-0.2c-0.2-0.1-0.4-0.2-0.5-0.4s-0.2-0.4-0.2-0.7c0-0.5,0.1-0.8,0.4-1.1
		c0.3-0.3,0.6-0.5,1.1-0.7c0.5-0.1,1-0.2,1.5-0.2c0.4,0,0.8,0,1.1,0.1s0.7,0.2,1,0.3l-0.8,1.5c-0.3-0.2-0.6-0.3-0.8-0.3
		s-0.5-0.1-0.7-0.1c-0.3,0-0.4,0-0.5,0.1s-0.1,0.1-0.1,0.2c0,0.1,0.1,0.1,0.2,0.2c0.1,0,0.3,0.1,0.5,0.1c0.2,0,0.4,0.1,0.6,0.1
		c0.2,0,0.4,0.1,0.6,0.2c0.2,0.1,0.4,0.2,0.5,0.4s0.2,0.4,0.2,0.7c0,0.4-0.1,0.8-0.4,1.1c-0.3,0.3-0.6,0.5-1.1,0.7
		C110.4,57.1,109.9,57.2,109.3,57.2z"/>
	<path class="st0" d="M112.8,53.7l0.3-1.6h4l-0.3,1.6H112.8z M115.1,57.2c-0.5,0-0.8-0.1-1.2-0.3c-0.3-0.2-0.5-0.4-0.7-0.7
		c-0.1-0.3-0.1-0.7-0.1-1.2l0.9-4.4h2.2l-0.9,4.4c0,0.2,0,0.3,0.1,0.4c0.1,0.1,0.2,0.1,0.3,0.1c0.1,0,0.2,0,0.2,0
		c0.1,0,0.2-0.1,0.2-0.1l0.3,1.5c-0.2,0.1-0.4,0.2-0.7,0.2C115.6,57.2,115.4,57.2,115.1,57.2z"/>
	<path class="st0" d="M120,57.2c-0.6,0-1.1-0.1-1.5-0.3s-0.8-0.5-1-0.9c-0.2-0.4-0.4-0.8-0.4-1.3c0-0.6,0.1-1.1,0.4-1.6
		s0.7-0.8,1.2-1.1c0.5-0.3,1.1-0.4,1.7-0.4c0.6,0,1.1,0.1,1.5,0.3c0.4,0.2,0.8,0.5,1,0.9s0.4,0.8,0.4,1.3c0,0.6-0.1,1.1-0.4,1.6
		c-0.3,0.5-0.7,0.8-1.2,1.1S120.6,57.2,120,57.2z M120.1,55.5c0.2,0,0.4-0.1,0.5-0.2c0.1-0.1,0.3-0.2,0.3-0.4s0.1-0.4,0.1-0.7
		c0-0.2-0.1-0.4-0.2-0.6s-0.3-0.3-0.6-0.3c-0.2,0-0.4,0-0.5,0.1c-0.1,0.1-0.3,0.2-0.3,0.4s-0.1,0.4-0.1,0.7c0,0.3,0.1,0.5,0.2,0.6
		C119.7,55.4,119.9,55.5,120.1,55.5z"/>
	<path class="st0" d="M57.4,68.7l1.4-6.8h3c0.9,0,1.6,0.2,2.1,0.6c0.5,0.4,0.7,0.9,0.7,1.7c0,0.6-0.1,1.1-0.4,1.5
		c-0.3,0.4-0.7,0.8-1.2,1c-0.5,0.2-1.1,0.4-1.8,0.4H59l1.2-1l-0.5,2.7H57.4z M60.1,66.3l-0.8-1h1.9c0.3,0,0.6-0.1,0.7-0.2
		c0.2-0.2,0.3-0.4,0.3-0.7c0-0.2-0.1-0.4-0.2-0.5c-0.2-0.1-0.4-0.2-0.6-0.2h-1.8l1.2-1.1L60.1,66.3z"/>
	<path class="st0" d="M67.5,68.8c-0.6,0-1.1-0.1-1.5-0.3c-0.4-0.2-0.8-0.5-1-0.9c-0.2-0.4-0.4-0.8-0.4-1.3c0-0.6,0.1-1.1,0.4-1.6
		c0.3-0.5,0.7-0.8,1.1-1.1c0.5-0.3,1.1-0.4,1.7-0.4c0.6,0,1.1,0.1,1.5,0.3c0.4,0.2,0.7,0.5,0.9,0.8c0.2,0.3,0.3,0.8,0.3,1.2
		c0,0.2,0,0.3,0,0.5c0,0.2-0.1,0.3-0.1,0.4h-4.1l0.2-1.1h2.9l-0.9,0.3c0.1-0.2,0-0.4,0-0.5c-0.1-0.1-0.1-0.3-0.3-0.3
		c-0.1-0.1-0.3-0.1-0.5-0.1c-0.3,0-0.5,0.1-0.6,0.2c-0.2,0.1-0.3,0.3-0.3,0.6c-0.1,0.2-0.1,0.5-0.1,0.7c0,0.3,0.1,0.6,0.3,0.7
		s0.4,0.2,0.8,0.2c0.2,0,0.4,0,0.6-0.1c0.2-0.1,0.4-0.2,0.6-0.3l0.9,1.3c-0.4,0.2-0.7,0.4-1.1,0.5C68.3,68.7,67.9,68.8,67.5,68.8z"
		/>
	<path class="st0" d="M70.7,68.7l1.1-5.3h2.1l-0.3,1.5l-0.2-0.4c0.2-0.4,0.5-0.7,0.9-0.9c0.4-0.2,0.8-0.3,1.3-0.3l-0.4,1.9
		c-0.1,0-0.2,0-0.2,0c-0.1,0-0.1,0-0.2,0c-0.4,0-0.7,0.1-0.9,0.2c-0.2,0.2-0.4,0.4-0.4,0.8l-0.5,2.4H70.7z"/>
	<path class="st0" d="M77.3,68.8c-0.5,0-0.9,0-1.3-0.1c-0.4-0.1-0.7-0.2-1-0.3l0.8-1.5c0.3,0.2,0.6,0.3,0.9,0.4
		c0.3,0.1,0.6,0.1,0.9,0.1c0.2,0,0.4,0,0.5-0.1c0.1,0,0.1-0.1,0.1-0.2c0-0.1-0.1-0.1-0.2-0.2c-0.1,0-0.3-0.1-0.5-0.1
		c-0.2,0-0.4-0.1-0.6-0.1c-0.2-0.1-0.4-0.1-0.6-0.2c-0.2-0.1-0.4-0.2-0.5-0.4s-0.2-0.4-0.2-0.7c0-0.5,0.1-0.8,0.4-1.1
		c0.3-0.3,0.6-0.5,1.1-0.7c0.5-0.1,1-0.2,1.5-0.2c0.4,0,0.8,0,1.1,0.1s0.7,0.2,1,0.3l-0.8,1.5c-0.3-0.2-0.6-0.3-0.8-0.3
		s-0.5-0.1-0.7-0.1c-0.3,0-0.4,0-0.5,0.1s-0.1,0.1-0.1,0.2c0,0.1,0.1,0.1,0.2,0.2c0.1,0,0.3,0.1,0.5,0.1c0.2,0,0.4,0.1,0.6,0.1
		c0.2,0,0.4,0.1,0.6,0.2c0.2,0.1,0.4,0.2,0.5,0.4s0.2,0.4,0.2,0.7c0,0.4-0.1,0.8-0.4,1.1c-0.3,0.3-0.6,0.5-1.1,0.7
		C78.3,68.7,77.8,68.8,77.3,68.8z"/>
	<path class="st0" d="M83.6,68.8c-0.6,0-1.1-0.1-1.5-0.3s-0.8-0.5-1-0.9c-0.2-0.4-0.4-0.8-0.4-1.3c0-0.6,0.1-1.1,0.4-1.6
		s0.7-0.8,1.2-1.1c0.5-0.3,1.1-0.4,1.7-0.4c0.6,0,1.1,0.1,1.5,0.3c0.4,0.2,0.8,0.5,1,0.9s0.4,0.8,0.4,1.3c0,0.6-0.1,1.1-0.4,1.6
		c-0.3,0.5-0.7,0.8-1.2,1.1S84.3,68.8,83.6,68.8z M83.8,67.1c0.2,0,0.4-0.1,0.5-0.2c0.1-0.1,0.3-0.2,0.3-0.4s0.1-0.4,0.1-0.7
		c0-0.2-0.1-0.4-0.2-0.6S84.2,65,83.9,65c-0.2,0-0.4,0-0.5,0.1c-0.1,0.1-0.3,0.2-0.3,0.4S83,66,83,66.2c0,0.3,0.1,0.5,0.2,0.6
		C83.3,67,83.5,67.1,83.8,67.1z"/>
	<path class="st0" d="M91.7,63.3c0.4,0,0.8,0.1,1.1,0.3c0.3,0.2,0.5,0.5,0.7,0.8c0.1,0.4,0.1,0.8,0,1.4l-0.6,2.9h-2.2l0.5-2.7
		c0.1-0.3,0-0.5,0-0.7c-0.1-0.2-0.2-0.2-0.5-0.2c-0.2,0-0.5,0.1-0.6,0.2c-0.2,0.2-0.3,0.4-0.4,0.8l-0.5,2.5h-2.2l1.1-5.3h2.1
		l-0.3,1.5l-0.3-0.4c0.3-0.4,0.6-0.7,0.9-0.9C90.9,63.4,91.3,63.3,91.7,63.3z"/>
	<path class="st0" d="M96.3,68.8c-0.3,0-0.7-0.1-1-0.3s-0.6-0.5-0.8-0.8c-0.2-0.4-0.3-0.8-0.3-1.3c0-0.4,0.1-0.8,0.2-1.2
		c0.1-0.4,0.4-0.7,0.6-1c0.3-0.3,0.6-0.5,0.9-0.6c0.3-0.2,0.7-0.2,1.1-0.2c0.4,0,0.8,0.1,1.1,0.3c0.3,0.2,0.5,0.4,0.7,0.8
		c0.1,0.4,0.1,0.9,0,1.6c-0.1,0.6-0.2,1.1-0.5,1.5c-0.2,0.4-0.5,0.7-0.8,0.9C97.1,68.7,96.8,68.8,96.3,68.8z M97.2,67.1
		c0.2,0,0.4,0,0.5-0.2c0.1-0.1,0.3-0.2,0.3-0.4s0.1-0.4,0.1-0.6s-0.1-0.4-0.2-0.6c-0.1-0.2-0.3-0.2-0.6-0.2c-0.2,0-0.4,0.1-0.5,0.2
		c-0.1,0.1-0.3,0.2-0.3,0.4s-0.1,0.4-0.1,0.6s0.1,0.4,0.2,0.6C96.7,67,96.9,67.1,97.2,67.1z M97.7,68.7l0.1-0.7l0.4-1.9l0.3-1.9
		l0.1-0.7h2.2l-1.1,5.3H97.7z"/>
	<path class="st0" d="M100.7,68.7l1.4-7.2h2.2l-1.4,7.2H100.7z"/>
	<path class="st0" d="M103.8,68.7l1.1-5.3h2.2l-1.1,5.3H103.8z M106.2,63c-0.4,0-0.7-0.1-0.9-0.3c-0.2-0.2-0.3-0.4-0.3-0.7
		c0-0.3,0.1-0.6,0.4-0.9c0.3-0.2,0.6-0.3,1-0.3c0.4,0,0.7,0.1,0.9,0.3c0.2,0.2,0.3,0.4,0.3,0.7c0,0.4-0.1,0.7-0.4,0.9
		C107,62.9,106.6,63,106.2,63z"/>
	<path class="st0" d="M106.8,68.7l0.3-1.3l3.3-3.1l0.3,0.7h-3.1l0.3-1.6h4.9l-0.3,1.3l-3.3,3.1l-0.3-0.7h3.3l-0.3,1.6H106.8z"/>
	<path class="st0" d="M114.9,68.8c-0.3,0-0.7-0.1-1-0.3s-0.6-0.5-0.8-0.8c-0.2-0.4-0.3-0.8-0.3-1.3c0-0.4,0.1-0.8,0.2-1.2
		c0.1-0.4,0.4-0.7,0.6-1c0.3-0.3,0.6-0.5,0.9-0.6c0.3-0.2,0.7-0.2,1.1-0.2c0.4,0,0.8,0.1,1.1,0.3c0.3,0.2,0.5,0.4,0.7,0.8
		c0.1,0.4,0.1,0.9,0,1.6c-0.1,0.6-0.2,1.1-0.5,1.5c-0.2,0.4-0.5,0.7-0.8,0.9C115.7,68.7,115.3,68.8,114.9,68.8z M115.7,67.1
		c0.2,0,0.4,0,0.5-0.2c0.1-0.1,0.3-0.2,0.3-0.4s0.1-0.4,0.1-0.6s-0.1-0.4-0.2-0.6c-0.1-0.2-0.3-0.2-0.6-0.2c-0.2,0-0.4,0.1-0.5,0.2
		c-0.1,0.1-0.3,0.2-0.3,0.4s-0.1,0.4-0.1,0.6s0.1,0.4,0.2,0.6C115.3,67,115.4,67.1,115.7,67.1z M116.2,68.7l0.1-0.7l0.4-1.9l0.3-1.9
		l0.1-0.7h2.2l-1.1,5.3H116.2z"/>
	<path class="st0" d="M121.7,68.8c-0.3,0-0.7-0.1-1-0.3s-0.6-0.5-0.8-0.8c-0.2-0.4-0.3-0.8-0.3-1.3c0-0.4,0.1-0.8,0.2-1.2
		c0.1-0.4,0.4-0.7,0.6-1c0.3-0.3,0.6-0.5,0.9-0.6c0.3-0.2,0.7-0.2,1.1-0.2c0.4,0,0.7,0.1,0.9,0.2c0.3,0.1,0.5,0.3,0.6,0.6
		c0.2,0.3,0.2,0.7,0.2,1.1c0,0.5-0.1,0.9-0.2,1.3c-0.1,0.4-0.3,0.8-0.5,1.1c-0.2,0.3-0.5,0.6-0.8,0.8S122.1,68.8,121.7,68.8z
		 M122.5,67.1c0.2,0,0.4,0,0.5-0.2c0.1-0.1,0.3-0.2,0.3-0.4s0.1-0.4,0.1-0.6s-0.1-0.4-0.2-0.6c-0.1-0.2-0.3-0.2-0.6-0.2
		c-0.2,0-0.4,0.1-0.5,0.2c-0.1,0.1-0.3,0.2-0.3,0.4s-0.1,0.4-0.1,0.6s0.1,0.4,0.2,0.6C122.1,67,122.3,67.1,122.5,67.1z M123,68.7
		l0.1-0.7l0.4-1.9l0.3-1.9l0.5-2.6h2.2l-1.4,7.2H123z"/>
	<path class="st0" d="M129.1,68.8c-0.6,0-1.1-0.1-1.5-0.3s-0.8-0.5-1-0.9c-0.2-0.4-0.4-0.8-0.4-1.3c0-0.6,0.1-1.1,0.4-1.6
		s0.7-0.8,1.2-1.1c0.5-0.3,1.1-0.4,1.7-0.4c0.6,0,1.1,0.1,1.5,0.3c0.4,0.2,0.8,0.5,1,0.9s0.4,0.8,0.4,1.3c0,0.6-0.1,1.1-0.4,1.6
		c-0.3,0.5-0.7,0.8-1.2,1.1S129.8,68.8,129.1,68.8z M129.3,67.1c0.2,0,0.4-0.1,0.5-0.2c0.1-0.1,0.3-0.2,0.3-0.4s0.1-0.4,0.1-0.7
		c0-0.2-0.1-0.4-0.2-0.6s-0.3-0.3-0.6-0.3c-0.2,0-0.4,0-0.5,0.1c-0.1,0.1-0.3,0.2-0.3,0.4s-0.1,0.4-0.1,0.7c0,0.3,0.1,0.5,0.2,0.6
		C128.8,67,129,67.1,129.3,67.1z"/>
</g>
</svg>
