<?xml version="1.0" encoding="utf-8"?>
<!-- Generator: Adobe Illustrator 24.1.2, SVG Export Plug-In . SVG Version: 6.00 Build 0)  -->
<svg version="1.1" id="Layer_1" xmlns="http://www.w3.org/2000/svg" xmlns:xlink="http://www.w3.org/1999/xlink" x="0px" y="0px"
	 viewBox="0 0 153.2 107.3" style="enable-background:new 0 0 153.2 107.3;" xml:space="preserve">
<style type="text/css">
	.st0{fill:#FFFDFD;}
	.st1{fill:#00B1FF;}
	.st2{fill:#FFFFFF;}
</style>
<g>
	<path class="st0" d="M93,107.3c-29.6,0-53.7-24.1-53.7-53.7C39.3,24.1,63.4,0,93,0s53.7,24.1,53.7,53.7
		C146.7,83.3,122.6,107.3,93,107.3z M93,2.3c-28.3,0-51.4,23.1-51.4,51.4c0,28.3,23.1,51.4,51.4,51.4s51.4-23.1,51.4-51.4
		C144.4,25.3,121.3,2.3,93,2.3z"/>
</g>
<g>
	<path class="st1" d="M36.3,89.3c-4.6,0-9.3-0.5-14-1.5c-4.7-1-8.8-2.5-12.3-4.5l-1.3-0.8l8.8-19.1l1.6,0.9c2.5,1.5,5.2,2.6,8.1,3.3
		c2.9,0.8,5.7,1.1,8.4,1.1c2.2,0,4-0.4,5.3-1.1c1-0.6,1.4-1.2,1.4-2.2c0-0.7,0-2.7-6-2.7H26.1V47.1l7.2-7.3H12.5V20H64v15.7
		L53.5,46.4c4,1.4,7.2,3.6,9.6,6.4c2.9,3.5,4.4,7.8,4.4,12.7c0,4.2-1.2,8.1-3.4,11.7c-2.3,3.6-5.8,6.6-10.5,8.8
		C48.9,88.2,43.1,89.3,36.3,89.3z"/>
	<path class="st2" d="M62.3,21.7V35l-12,12.2c5,1.2,8.8,3.5,11.5,6.7c2.7,3.2,4,7.1,4,11.7c0,3.9-1.1,7.5-3.2,10.8
		c-2.1,3.3-5.4,6.1-9.8,8.2c-4.4,2.1-9.9,3.1-16.5,3.1c-4.5,0-9.1-0.5-13.6-1.5c-4.5-1-8.5-2.4-11.8-4.3l7.4-16
		c2.6,1.5,5.5,2.7,8.5,3.5c3,0.8,6,1.2,8.8,1.2c2.5,0,4.5-0.4,6.1-1.3c1.5-0.9,2.3-2.1,2.3-3.7c0-2.9-2.6-4.4-7.7-4.4h-8.6V47.7
		l9.5-9.7h-23V21.7H62.3 M65.7,18.3h-3.4H14.2h-3.4v3.4v16.4v3.4h3.4h15.1l-3.9,4l-1,1v1.4v13.4v3.4h3.4h8.6c3.5,0,4.3,0.8,4.3,0.8
		l0,0c0,0,0,0.1,0,0.3c0,0.2,0,0.4-0.6,0.8c-1,0.6-2.5,0.9-4.4,0.9c-2.5,0-5.2-0.4-8-1.1c-2.7-0.7-5.3-1.8-7.7-3.2L16.7,61l-1.5,3.4
		l-7.4,16l-1.3,2.8l2.7,1.5c3.7,2.1,8,3.6,12.8,4.7c4.7,1,9.5,1.6,14.3,1.6c7,0,13.1-1.2,17.9-3.5c5-2.4,8.8-5.5,11.2-9.4
		c2.5-3.9,3.7-8.1,3.7-12.6c0-5.3-1.6-10-4.8-13.8c-2.1-2.5-4.7-4.5-7.9-6l8.3-8.4l1-1V35V21.7V18.3L65.7,18.3z"/>
</g>
<g>
	<path class="st0" d="M73.9,36.5h3L76.6,38h-5l1.2-6h4.9l-0.3,1.5h-2.9L73.9,36.5z M74.2,34.3h2.7l-0.3,1.5h-2.7L74.2,34.3z"/>
	<path class="st0" d="M81.4,33.2c0.4,0,0.7,0.1,1,0.2c0.3,0.2,0.5,0.4,0.6,0.7c0.1,0.3,0.1,0.7,0,1.2L82.5,38h-1.9l0.5-2.4
		c0.1-0.3,0-0.5,0-0.6c-0.1-0.1-0.2-0.2-0.4-0.2c-0.2,0-0.4,0.1-0.5,0.2c-0.1,0.1-0.3,0.4-0.3,0.7L79.3,38h-1.9l0.9-4.7h1.8
		l-0.3,1.3l-0.2-0.4c0.2-0.4,0.5-0.6,0.8-0.8C80.8,33.3,81.1,33.2,81.4,33.2z"/>
	<path class="st0" d="M84.6,38l-1-4.7h1.9l0.7,3.8h-1l2.3-3.8h1.9L86.6,38H84.6z"/>
	<path class="st0" d="M88.8,38l0.9-4.7h1.9L90.8,38H88.8z M90.9,33c-0.3,0-0.6-0.1-0.8-0.3c-0.2-0.2-0.3-0.4-0.3-0.7
		c0-0.3,0.1-0.6,0.3-0.8c0.2-0.2,0.5-0.3,0.9-0.3c0.3,0,0.6,0.1,0.8,0.2c0.2,0.2,0.3,0.4,0.3,0.6c0,0.3-0.1,0.6-0.3,0.8
		C91.6,32.9,91.3,33,90.9,33z"/>
	<path class="st0" d="M93.8,38.1c-0.3,0-0.6-0.1-0.9-0.3s-0.5-0.4-0.7-0.7s-0.3-0.7-0.3-1.2c0-0.4,0.1-0.7,0.2-1.1s0.3-0.6,0.5-0.9
		s0.5-0.4,0.8-0.6c0.3-0.1,0.6-0.2,1-0.2c0.4,0,0.7,0.1,1,0.2c0.3,0.1,0.5,0.4,0.6,0.8c0.1,0.4,0.1,0.8,0,1.5
		c-0.1,0.5-0.2,0.9-0.4,1.3s-0.4,0.6-0.7,0.8C94.5,38,94.1,38.1,93.8,38.1z M94.5,36.6c0.2,0,0.3,0,0.4-0.1c0.1-0.1,0.2-0.2,0.3-0.4
		c0.1-0.2,0.1-0.3,0.1-0.6s-0.1-0.4-0.2-0.5s-0.3-0.2-0.5-0.2c-0.2,0-0.3,0-0.4,0.1c-0.1,0.1-0.2,0.2-0.3,0.4
		c-0.1,0.2-0.1,0.3-0.1,0.6s0.1,0.4,0.2,0.5C94.1,36.5,94.3,36.6,94.5,36.6z M94.9,38l0.1-0.6l0.3-1.7l0.2-1.7l0.1-0.6h1.9L96.8,38
		H94.9z"/>
	<path class="st0" d="M104.7,33.2c0.4,0,0.7,0.1,0.9,0.2c0.3,0.2,0.5,0.4,0.6,0.7c0.1,0.3,0.1,0.7,0,1.2l-0.5,2.6h-1.9l0.5-2.3
		c0.1-0.3,0-0.5,0-0.6s-0.2-0.2-0.4-0.2c-0.2,0-0.3,0.1-0.5,0.2c-0.1,0.1-0.2,0.3-0.3,0.6l-0.5,2.3h-1.9l0.5-2.3
		c0.1-0.3,0-0.5,0-0.6c-0.1-0.1-0.2-0.2-0.4-0.2c-0.2,0-0.3,0.1-0.5,0.2c-0.1,0.1-0.2,0.4-0.3,0.7L99.6,38h-1.9l0.9-4.7h1.8l-0.2,1
		l-0.3,0c0.2-0.4,0.5-0.6,0.8-0.8s0.6-0.3,0.9-0.3c0.3,0,0.5,0.1,0.7,0.2c0.2,0.1,0.4,0.3,0.6,0.5c0.2,0.2,0.2,0.5,0.3,0.8l-0.5-0.2
		c0.2-0.4,0.5-0.7,0.8-0.9S104.2,33.2,104.7,33.2z"/>
	<path class="st0" d="M109.4,38.1c-0.5,0-1-0.1-1.3-0.3c-0.4-0.2-0.7-0.4-0.9-0.8s-0.3-0.7-0.3-1.1c0-0.5,0.1-1,0.4-1.4s0.6-0.7,1-1
		c0.4-0.2,0.9-0.4,1.5-0.4c0.5,0,1,0.1,1.4,0.3c0.4,0.2,0.7,0.4,0.9,0.8s0.3,0.7,0.3,1.1c0,0.5-0.1,1-0.4,1.4s-0.6,0.7-1,1
		C110.4,38,109.9,38.1,109.4,38.1z M109.5,36.6c0.2,0,0.3,0,0.4-0.1s0.2-0.2,0.3-0.4c0.1-0.2,0.1-0.4,0.1-0.6c0-0.2-0.1-0.4-0.2-0.5
		c-0.1-0.2-0.3-0.2-0.5-0.2c-0.2,0-0.3,0-0.4,0.1s-0.2,0.2-0.3,0.4c-0.1,0.2-0.1,0.4-0.1,0.6c0,0.2,0.1,0.4,0.2,0.5
		C109.1,36.5,109.3,36.6,109.5,36.6z"/>
	<path class="st0" d="M114.4,38.1c-0.4,0-0.8,0-1.2-0.1s-0.7-0.2-0.9-0.3l0.7-1.3c0.2,0.1,0.5,0.3,0.8,0.3c0.3,0.1,0.6,0.1,0.8,0.1
		c0.2,0,0.4,0,0.5-0.1s0.1-0.1,0.1-0.2c0-0.1-0.1-0.1-0.2-0.2c-0.1,0-0.3-0.1-0.4-0.1c-0.2,0-0.4-0.1-0.6-0.1
		c-0.2,0-0.4-0.1-0.6-0.2c-0.2-0.1-0.3-0.2-0.4-0.4c-0.1-0.2-0.2-0.4-0.2-0.6c0-0.4,0.1-0.7,0.4-1c0.2-0.3,0.6-0.5,1-0.6
		s0.8-0.2,1.3-0.2c0.3,0,0.7,0,1,0.1c0.3,0.1,0.6,0.1,0.8,0.3l-0.7,1.3c-0.2-0.1-0.5-0.2-0.7-0.3s-0.5-0.1-0.7-0.1
		c-0.2,0-0.4,0-0.5,0.1s-0.1,0.1-0.1,0.2c0,0.1,0.1,0.1,0.2,0.2c0.1,0,0.3,0.1,0.4,0.1c0.2,0,0.4,0.1,0.6,0.1c0.2,0,0.4,0.1,0.6,0.2
		c0.2,0.1,0.3,0.2,0.4,0.4c0.1,0.2,0.2,0.4,0.2,0.6c0,0.4-0.1,0.7-0.4,1c-0.2,0.3-0.6,0.5-1,0.6S114.8,38.1,114.4,38.1z"/>
	<path class="st0" d="M122,38.1c-0.3,0-0.6-0.1-0.9-0.3s-0.5-0.4-0.7-0.7s-0.3-0.7-0.3-1.2c0-0.4,0.1-0.7,0.2-1.1s0.3-0.6,0.5-0.9
		s0.5-0.4,0.8-0.6c0.3-0.1,0.6-0.2,1-0.2c0.4,0,0.7,0.1,1,0.2c0.3,0.1,0.5,0.4,0.6,0.8c0.1,0.4,0.1,0.8,0,1.5
		c-0.1,0.5-0.2,0.9-0.4,1.3s-0.4,0.6-0.7,0.8C122.7,38,122.4,38.1,122,38.1z M122.7,36.6c0.2,0,0.3,0,0.4-0.1
		c0.1-0.1,0.2-0.2,0.3-0.4c0.1-0.2,0.1-0.3,0.1-0.6s-0.1-0.4-0.2-0.5s-0.3-0.2-0.5-0.2c-0.2,0-0.3,0-0.4,0.1
		c-0.1,0.1-0.2,0.2-0.3,0.4c-0.1,0.2-0.1,0.3-0.1,0.6s0.1,0.4,0.2,0.5C122.3,36.5,122.5,36.6,122.7,36.6z M123.2,38l0.1-0.6l0.3-1.7
		l0.2-1.7l0.1-0.6h1.9L125,38H123.2z"/>
	<path class="st0" d="M71.7,45.3l0.3-1.4h3.5l-0.3,1.4H71.7z M73.8,48.4c-0.4,0-0.7-0.1-1-0.2c-0.3-0.1-0.5-0.4-0.6-0.7
		c-0.1-0.3-0.1-0.6-0.1-1l0.8-3.9h1.9l-0.8,3.9c0,0.2,0,0.3,0.1,0.4s0.2,0.1,0.3,0.1c0.1,0,0.2,0,0.2,0c0.1,0,0.1,0,0.2-0.1l0.2,1.3
		c-0.2,0.1-0.4,0.2-0.6,0.2C74.3,48.4,74,48.4,73.8,48.4z"/>
	<path class="st0" d="M77.5,48.4c-0.4,0-0.7-0.1-1-0.2c-0.3-0.2-0.5-0.4-0.6-0.7c-0.1-0.3-0.1-0.7,0-1.2l0.5-2.6h1.9L77.9,46
		c-0.1,0.3,0,0.5,0,0.6c0.1,0.1,0.2,0.2,0.4,0.2c0.2,0,0.4-0.1,0.5-0.2c0.1-0.1,0.2-0.4,0.3-0.7l0.5-2.3h1.9l-0.9,4.7h-1.8l0.3-1.3
		l0.2,0.4c-0.2,0.4-0.5,0.6-0.8,0.8C78.2,48.4,77.9,48.4,77.5,48.4z"/>
	<path class="st0" d="M88.2,43.6c0.4,0,0.7,0.1,1,0.2s0.5,0.4,0.6,0.7c0.1,0.3,0.1,0.7,0,1.2l-0.5,2.6h-1.9l0.5-2.4
		c0.1-0.3,0-0.5,0-0.6c-0.1-0.1-0.2-0.2-0.4-0.2c-0.2,0-0.4,0.1-0.5,0.2c-0.1,0.1-0.3,0.4-0.3,0.7L86,48.3h-1.9l1.3-6.4h1.9l-0.6,3
		l-0.3-0.3c0.2-0.4,0.5-0.6,0.8-0.8C87.5,43.6,87.8,43.6,88.2,43.6z"/>
	<path class="st0" d="M92.9,48.4c-0.5,0-1-0.1-1.3-0.3s-0.7-0.4-0.9-0.8s-0.3-0.7-0.3-1.1c0-0.5,0.1-1,0.4-1.4c0.3-0.4,0.6-0.7,1-1
		c0.4-0.2,0.9-0.4,1.5-0.4c0.5,0,1,0.1,1.4,0.3c0.4,0.2,0.7,0.4,0.9,0.8s0.3,0.7,0.3,1.1c0,0.5-0.1,1-0.4,1.4c-0.3,0.4-0.6,0.7-1,1
		C94,48.3,93.5,48.4,92.9,48.4z M93,46.9c0.2,0,0.3,0,0.4-0.1s0.2-0.2,0.3-0.4c0.1-0.2,0.1-0.4,0.1-0.6c0-0.2-0.1-0.4-0.2-0.5
		c-0.1-0.2-0.3-0.2-0.5-0.2c-0.2,0-0.3,0-0.4,0.1s-0.2,0.2-0.3,0.4c-0.1,0.2-0.1,0.4-0.1,0.6s0.1,0.4,0.2,0.5
		C92.6,46.9,92.8,46.9,93,46.9z"/>
	<path class="st0" d="M98.2,50.1c-0.5,0-0.9,0-1.3-0.1c-0.4-0.1-0.7-0.2-1-0.4l0.8-1.3c0.2,0.1,0.4,0.3,0.7,0.3s0.6,0.1,0.8,0.1
		c0.4,0,0.7-0.1,0.8-0.2s0.3-0.4,0.3-0.7l0.1-0.6l0.4-1.3l0.3-1.5l0.1-0.7h1.8l-0.7,3.8c-0.2,1-0.6,1.6-1.1,2.1
		C99.7,49.9,99,50.1,98.2,50.1z M98.2,48.1c-0.3,0-0.7-0.1-1-0.2c-0.3-0.2-0.6-0.4-0.8-0.7s-0.3-0.7-0.3-1.1c0-0.3,0.1-0.7,0.2-1
		s0.3-0.6,0.5-0.8c0.2-0.2,0.5-0.4,0.8-0.5c0.3-0.1,0.6-0.2,1-0.2c0.3,0,0.7,0.1,0.9,0.2c0.3,0.1,0.4,0.4,0.6,0.7
		c0.1,0.3,0.1,0.8,0,1.4c-0.1,0.5-0.2,0.9-0.4,1.3c-0.2,0.3-0.4,0.6-0.7,0.7S98.6,48.1,98.2,48.1z M98.9,46.6c0.2,0,0.3,0,0.4-0.1
		c0.1-0.1,0.2-0.2,0.3-0.3c0.1-0.1,0.1-0.3,0.1-0.5s-0.1-0.3-0.2-0.4c-0.1-0.1-0.3-0.2-0.5-0.2c-0.2,0-0.3,0-0.4,0.1
		c-0.1,0.1-0.2,0.2-0.3,0.3c-0.1,0.1-0.1,0.3-0.1,0.5c0,0.2,0.1,0.3,0.2,0.4C98.5,46.5,98.7,46.6,98.9,46.6z"/>
	<path class="st0" d="M104.2,48.4c-0.3,0-0.6-0.1-0.9-0.3s-0.5-0.4-0.7-0.7c-0.2-0.3-0.3-0.7-0.3-1.2c0-0.4,0.1-0.7,0.2-1.1
		c0.1-0.3,0.3-0.6,0.5-0.9s0.5-0.4,0.8-0.6c0.3-0.1,0.6-0.2,1-0.2c0.4,0,0.7,0.1,1,0.2c0.3,0.1,0.5,0.4,0.6,0.8
		c0.1,0.4,0.1,0.8,0,1.5c-0.1,0.5-0.2,0.9-0.4,1.3c-0.2,0.4-0.4,0.6-0.7,0.8C104.9,48.3,104.6,48.4,104.2,48.4z M105,46.9
		c0.2,0,0.3,0,0.4-0.1s0.2-0.2,0.3-0.4c0.1-0.2,0.1-0.3,0.1-0.6s-0.1-0.4-0.2-0.5s-0.3-0.2-0.5-0.2c-0.2,0-0.3,0-0.4,0.1
		s-0.2,0.2-0.3,0.4s-0.1,0.3-0.1,0.6s0.1,0.4,0.2,0.5C104.6,46.8,104.7,46.9,105,46.9z M105.4,48.3l0.1-0.6l0.3-1.7l0.2-1.7l0.1-0.6
		h1.9l-0.9,4.7H105.4z"/>
	<path class="st0" d="M108.1,48.3l0.9-4.7h1.8l-0.3,1.3l-0.2-0.4c0.2-0.4,0.5-0.6,0.8-0.8c0.3-0.2,0.7-0.2,1.2-0.2l-0.3,1.7
		c-0.1,0-0.2,0-0.2,0s-0.1,0-0.2,0c-0.3,0-0.6,0.1-0.8,0.2c-0.2,0.1-0.3,0.4-0.4,0.7l-0.4,2.2H108.1z"/>
	<path class="st0" d="M114.8,45.3l0.3-1.4h3.5l-0.3,1.4H114.8z M116.8,48.4c-0.4,0-0.7-0.1-1-0.2c-0.3-0.1-0.5-0.4-0.6-0.7
		c-0.1-0.3-0.1-0.6-0.1-1l0.8-3.9h1.9l-0.8,3.9c0,0.2,0,0.3,0.1,0.4s0.2,0.1,0.3,0.1c0.1,0,0.2,0,0.2,0c0.1,0,0.1,0,0.2-0.1l0.2,1.3
		c-0.2,0.1-0.4,0.2-0.6,0.2C117.3,48.4,117.1,48.4,116.8,48.4z"/>
	<path class="st0" d="M120.6,48.4c-0.4,0-0.7-0.1-1-0.2c-0.3-0.2-0.5-0.4-0.6-0.7c-0.1-0.3-0.1-0.7,0-1.2l0.5-2.6h1.9l-0.5,2.4
		c-0.1,0.3,0,0.5,0,0.6c0.1,0.1,0.2,0.2,0.4,0.2c0.2,0,0.4-0.1,0.5-0.2c0.1-0.1,0.2-0.4,0.3-0.7l0.5-2.3h1.9l-0.9,4.7h-1.8l0.3-1.3
		l0.2,0.4c-0.2,0.4-0.5,0.6-0.8,0.8C121.2,48.4,120.9,48.4,120.6,48.4z"/>
	<path class="st0" d="M71.2,60.3l1.3-6.4h1.8l-0.1,0.6l-0.3,1.7L73.6,58l-0.5,2.3H71.2z M75,58.7c-0.4,0-0.7-0.1-0.9-0.2
		c-0.3-0.1-0.5-0.4-0.6-0.8c-0.1-0.4-0.1-0.8,0-1.5c0.1-0.5,0.2-0.9,0.4-1.3c0.2-0.4,0.4-0.6,0.7-0.8c0.3-0.2,0.6-0.3,1-0.3
		c0.3,0,0.6,0.1,0.9,0.3s0.5,0.4,0.7,0.7c0.2,0.3,0.3,0.7,0.3,1.2c0,0.4-0.1,0.7-0.2,1.1c-0.1,0.3-0.3,0.6-0.5,0.9
		c-0.2,0.2-0.5,0.4-0.8,0.6C75.6,58.7,75.3,58.7,75,58.7z M74.6,57.2c0.2,0,0.3,0,0.4-0.1s0.2-0.2,0.3-0.4c0.1-0.2,0.1-0.3,0.1-0.6
		s-0.1-0.4-0.2-0.5s-0.3-0.2-0.5-0.2c-0.2,0-0.3,0-0.4,0.1s-0.2,0.2-0.3,0.4s-0.1,0.3-0.1,0.6s0.1,0.4,0.2,0.5
		C74.2,57.1,74.4,57.2,74.6,57.2z"/>
	<path class="st0" d="M77.6,58.7l0.9-4.7h1.8l-0.3,1.3l-0.2-0.4c0.2-0.4,0.5-0.6,0.8-0.8c0.3-0.2,0.7-0.2,1.2-0.2l-0.3,1.7
		c-0.1,0-0.2,0-0.2,0s-0.1,0-0.2,0c-0.3,0-0.6,0.1-0.8,0.2c-0.2,0.1-0.3,0.4-0.4,0.7l-0.4,2.2H77.6z"/>
	<path class="st0" d="M84.3,58.7c-0.5,0-1-0.1-1.4-0.3c-0.4-0.2-0.7-0.4-0.9-0.8c-0.2-0.3-0.3-0.7-0.3-1.2c0-0.5,0.1-1,0.4-1.4
		c0.2-0.4,0.6-0.7,1-1c0.4-0.2,0.9-0.4,1.5-0.4c0.5,0,0.9,0.1,1.3,0.3s0.6,0.4,0.8,0.7s0.3,0.7,0.3,1.1c0,0.1,0,0.3,0,0.4
		c0,0.1,0,0.3-0.1,0.4h-3.7l0.2-0.9H86l-0.8,0.2c0-0.2,0-0.3,0-0.5c0-0.1-0.1-0.2-0.2-0.3c-0.1-0.1-0.3-0.1-0.4-0.1
		c-0.2,0-0.4,0.1-0.6,0.2c-0.1,0.1-0.2,0.3-0.3,0.5c-0.1,0.2-0.1,0.4-0.1,0.6c0,0.3,0.1,0.5,0.2,0.6c0.2,0.1,0.4,0.2,0.7,0.2
		c0.2,0,0.4,0,0.5-0.1c0.2-0.1,0.3-0.1,0.5-0.2l0.8,1.2c-0.3,0.2-0.7,0.4-1,0.5C85,58.7,84.6,58.7,84.3,58.7z"/>
	<path class="st0" d="M91.1,53.9c0.4,0,0.7,0.1,1,0.2s0.5,0.4,0.6,0.7c0.1,0.3,0.1,0.7,0,1.2l-0.5,2.6h-1.9l0.5-2.4
		c0.1-0.3,0-0.5,0-0.6c-0.1-0.1-0.2-0.2-0.4-0.2c-0.2,0-0.4,0.1-0.5,0.2c-0.1,0.1-0.3,0.4-0.3,0.7L89,58.7H87L88,54h1.8l-0.3,1.3
		l-0.2-0.4c0.2-0.4,0.5-0.6,0.8-0.8C90.5,54,90.8,53.9,91.1,53.9z"/>
	<path class="st0" d="M95.3,58.7c-0.3,0-0.6-0.1-0.9-0.3s-0.5-0.4-0.7-0.7c-0.2-0.3-0.3-0.7-0.3-1.2c0-0.4,0.1-0.7,0.2-1.1
		c0.1-0.3,0.3-0.6,0.5-0.9s0.5-0.4,0.8-0.6c0.3-0.1,0.6-0.2,1-0.2c0.3,0,0.6,0.1,0.8,0.2c0.2,0.1,0.4,0.3,0.6,0.5
		c0.1,0.2,0.2,0.6,0.2,1c0,0.4,0,0.8-0.1,1.2c-0.1,0.4-0.2,0.7-0.4,1c-0.2,0.3-0.4,0.5-0.7,0.7S95.6,58.7,95.3,58.7z M96,57.2
		c0.2,0,0.3,0,0.4-0.1s0.2-0.2,0.3-0.4c0.1-0.2,0.1-0.3,0.1-0.6s-0.1-0.4-0.2-0.5s-0.3-0.2-0.5-0.2c-0.2,0-0.3,0-0.4,0.1
		s-0.2,0.2-0.3,0.4c-0.1,0.2-0.1,0.3-0.1,0.6s0.1,0.4,0.2,0.5C95.6,57.1,95.8,57.2,96,57.2z M96.5,58.7l0.1-0.6l0.3-1.7l0.2-1.7
		l0.5-2.3h1.9l-1.3,6.4H96.5z"/>
	<path class="st0" d="M101.3,58.7c-0.3,0-0.6-0.1-0.9-0.3s-0.5-0.4-0.7-0.7c-0.2-0.3-0.3-0.7-0.3-1.2c0-0.4,0.1-0.7,0.2-1.1
		c0.1-0.3,0.3-0.6,0.5-0.9s0.5-0.4,0.8-0.6c0.3-0.1,0.6-0.2,1-0.2c0.4,0,0.7,0.1,1,0.2c0.3,0.1,0.5,0.4,0.6,0.8
		c0.1,0.4,0.1,0.8,0,1.5c-0.1,0.5-0.2,0.9-0.4,1.3c-0.2,0.4-0.4,0.6-0.7,0.8C102,58.6,101.7,58.7,101.3,58.7z M102,57.2
		c0.2,0,0.3,0,0.4-0.1s0.2-0.2,0.3-0.4c0.1-0.2,0.1-0.3,0.1-0.6s-0.1-0.4-0.2-0.5s-0.3-0.2-0.5-0.2c-0.2,0-0.3,0-0.4,0.1
		s-0.2,0.2-0.3,0.4s-0.1,0.3-0.1,0.6s0.1,0.4,0.2,0.5C101.6,57.1,101.8,57.2,102,57.2z M102.5,58.7l0.1-0.6l0.3-1.7l0.2-1.7l0.1-0.6
		h1.9l-0.9,4.7H102.5z"/>
	<path class="st0" d="M71.2,70.6l1.3-6.4h1.8l-0.1,0.6l-0.3,1.7l-0.2,1.7l-0.5,2.3H71.2z M75,69.1c-0.4,0-0.7-0.1-0.9-0.2
		c-0.3-0.1-0.5-0.4-0.6-0.8c-0.1-0.4-0.1-0.8,0-1.5c0.1-0.5,0.2-0.9,0.4-1.3c0.2-0.4,0.4-0.6,0.7-0.8c0.3-0.2,0.6-0.3,1-0.3
		c0.3,0,0.6,0.1,0.9,0.3s0.5,0.4,0.7,0.7c0.2,0.3,0.3,0.7,0.3,1.2c0,0.4-0.1,0.7-0.2,1.1c-0.1,0.3-0.3,0.6-0.5,0.9
		c-0.2,0.2-0.5,0.4-0.8,0.6C75.6,69,75.3,69.1,75,69.1z M74.6,67.5c0.2,0,0.3,0,0.4-0.1s0.2-0.2,0.3-0.4c0.1-0.2,0.1-0.3,0.1-0.6
		s-0.1-0.4-0.2-0.5s-0.3-0.2-0.5-0.2c-0.2,0-0.3,0-0.4,0.1s-0.2,0.2-0.3,0.4s-0.1,0.3-0.1,0.6s0.1,0.4,0.2,0.5
		C74.2,67.5,74.4,67.5,74.6,67.5z"/>
	<path class="st0" d="M80.4,69.1c-0.5,0-1-0.1-1.4-0.3c-0.4-0.2-0.7-0.4-0.9-0.8c-0.2-0.3-0.3-0.7-0.3-1.2c0-0.5,0.1-1,0.4-1.4
		c0.2-0.4,0.6-0.7,1-1c0.4-0.2,0.9-0.4,1.5-0.4c0.5,0,0.9,0.1,1.3,0.3s0.6,0.4,0.8,0.7s0.3,0.7,0.3,1.1c0,0.1,0,0.3,0,0.4
		c0,0.1,0,0.3-0.1,0.4h-3.7l0.2-0.9h2.6l-0.8,0.2c0-0.2,0-0.3,0-0.5c0-0.1-0.1-0.2-0.2-0.3c-0.1-0.1-0.3-0.1-0.4-0.1
		c-0.2,0-0.4,0.1-0.6,0.2c-0.1,0.1-0.2,0.3-0.3,0.5c-0.1,0.2-0.1,0.4-0.1,0.6c0,0.3,0.1,0.5,0.2,0.6c0.2,0.1,0.4,0.2,0.7,0.2
		c0.2,0,0.4,0,0.5-0.1c0.2-0.1,0.3-0.1,0.5-0.2l0.8,1.2c-0.3,0.2-0.7,0.4-1,0.5C81.1,69,80.7,69.1,80.4,69.1z"/>
	<path class="st0" d="M83.1,69l0.9-4.7h1.8l-0.3,1.3l-0.2-0.4c0.2-0.4,0.5-0.6,0.8-0.8c0.3-0.2,0.7-0.2,1.2-0.2l-0.3,1.7
		c-0.1,0-0.2,0-0.2,0s-0.1,0-0.2,0c-0.3,0-0.6,0.1-0.8,0.2c-0.2,0.1-0.3,0.4-0.4,0.7L85.1,69H83.1z"/>
	<path class="st0" d="M89,69.1c-0.4,0-0.8,0-1.2-0.1s-0.7-0.2-0.9-0.3l0.7-1.3c0.2,0.1,0.5,0.3,0.8,0.3s0.6,0.1,0.8,0.1
		c0.2,0,0.4,0,0.5-0.1s0.1-0.1,0.1-0.2c0-0.1-0.1-0.1-0.2-0.2s-0.3-0.1-0.4-0.1c-0.2,0-0.4-0.1-0.6-0.1c-0.2,0-0.4-0.1-0.6-0.2
		c-0.2-0.1-0.3-0.2-0.4-0.4c-0.1-0.2-0.2-0.4-0.2-0.6c0-0.4,0.1-0.7,0.4-1c0.2-0.3,0.6-0.5,1-0.6s0.8-0.2,1.3-0.2c0.3,0,0.7,0,1,0.1
		c0.3,0.1,0.6,0.1,0.8,0.3l-0.7,1.3c-0.2-0.1-0.5-0.2-0.7-0.3s-0.5-0.1-0.7-0.1c-0.2,0-0.4,0-0.5,0.1c-0.1,0-0.1,0.1-0.1,0.2
		c0,0.1,0.1,0.1,0.2,0.2c0.1,0,0.3,0.1,0.4,0.1c0.2,0,0.4,0.1,0.6,0.1c0.2,0,0.4,0.1,0.6,0.2c0.2,0.1,0.3,0.2,0.4,0.4
		c0.1,0.2,0.2,0.4,0.2,0.6c0,0.4-0.1,0.7-0.4,1c-0.2,0.3-0.6,0.5-1,0.6S89.5,69.1,89,69.1z"/>
	<path class="st0" d="M94.7,69.1c-0.5,0-1-0.1-1.3-0.3s-0.7-0.4-0.9-0.8s-0.3-0.7-0.3-1.1c0-0.5,0.1-1,0.4-1.4c0.3-0.4,0.6-0.7,1-1
		c0.4-0.2,0.9-0.4,1.5-0.4c0.5,0,1,0.1,1.4,0.3c0.4,0.2,0.7,0.4,0.9,0.8s0.3,0.7,0.3,1.1c0,0.5-0.1,1-0.4,1.4c-0.3,0.4-0.6,0.7-1,1
		C95.7,68.9,95.2,69.1,94.7,69.1z M94.8,67.5c0.2,0,0.3,0,0.4-0.1s0.2-0.2,0.3-0.4c0.1-0.2,0.1-0.4,0.1-0.6c0-0.2-0.1-0.4-0.2-0.5
		c-0.1-0.2-0.3-0.2-0.5-0.2c-0.2,0-0.3,0-0.4,0.1s-0.2,0.2-0.3,0.4c-0.1,0.2-0.1,0.4-0.1,0.6s0.1,0.4,0.2,0.5
		C94.4,67.5,94.6,67.5,94.8,67.5z"/>
	<path class="st0" d="M101.8,64.2c0.4,0,0.7,0.1,1,0.2s0.5,0.4,0.6,0.7c0.1,0.3,0.1,0.7,0,1.2l-0.5,2.6H101l0.5-2.4
		c0.1-0.3,0-0.5,0-0.6c-0.1-0.1-0.2-0.2-0.4-0.2c-0.2,0-0.4,0.1-0.5,0.2c-0.1,0.1-0.3,0.4-0.3,0.7L99.7,69h-1.9l0.9-4.7h1.8
		l-0.3,1.3l-0.2-0.4c0.2-0.4,0.5-0.6,0.8-0.8C101.2,64.3,101.5,64.2,101.8,64.2z"/>
	<path class="st0" d="M105.9,69.1c-0.3,0-0.6-0.1-0.9-0.3s-0.5-0.4-0.7-0.7c-0.2-0.3-0.3-0.7-0.3-1.2c0-0.4,0.1-0.7,0.2-1.1
		c0.1-0.3,0.3-0.6,0.5-0.9s0.5-0.4,0.8-0.6c0.3-0.1,0.6-0.2,1-0.2c0.4,0,0.7,0.1,1,0.2c0.3,0.1,0.5,0.4,0.6,0.8
		c0.1,0.4,0.1,0.8,0,1.5c-0.1,0.5-0.2,0.9-0.4,1.3c-0.2,0.4-0.4,0.6-0.7,0.8C106.7,69,106.3,69.1,105.9,69.1z M106.7,67.5
		c0.2,0,0.3,0,0.4-0.1s0.2-0.2,0.3-0.4c0.1-0.2,0.1-0.3,0.1-0.6s-0.1-0.4-0.2-0.5s-0.3-0.2-0.5-0.2c-0.2,0-0.3,0-0.4,0.1
		s-0.2,0.2-0.3,0.4s-0.1,0.3-0.1,0.6s0.1,0.4,0.2,0.5C106.3,67.5,106.5,67.5,106.7,67.5z M107.1,69l0.1-0.6l0.3-1.7l0.2-1.7l0.1-0.6
		h1.9L109,69H107.1z"/>
	<path class="st0" d="M109.8,69l1.3-6.4h1.9l-1.3,6.4H109.8z"/>
	<path class="st0" d="M112.6,69l0.9-4.7h1.9l-0.9,4.7H112.6z M114.7,63.9c-0.3,0-0.6-0.1-0.8-0.3c-0.2-0.2-0.3-0.4-0.3-0.7
		c0-0.3,0.1-0.6,0.3-0.8c0.2-0.2,0.5-0.3,0.9-0.3c0.3,0,0.6,0.1,0.8,0.2c0.2,0.2,0.3,0.4,0.3,0.6c0,0.3-0.1,0.6-0.3,0.8
		C115.4,63.8,115.1,63.9,114.7,63.9z"/>
	<path class="st0" d="M115.2,69l0.2-1.1l3-2.8l0.3,0.6h-2.7l0.3-1.4h4.3l-0.2,1.1l-3,2.8l-0.3-0.6h2.9l-0.3,1.4H115.2z"/>
	<path class="st0" d="M122.4,69.1c-0.3,0-0.6-0.1-0.9-0.3s-0.5-0.4-0.7-0.7c-0.2-0.3-0.3-0.7-0.3-1.2c0-0.4,0.1-0.7,0.2-1.1
		c0.1-0.3,0.3-0.6,0.5-0.9s0.5-0.4,0.8-0.6c0.3-0.1,0.6-0.2,1-0.2c0.4,0,0.7,0.1,1,0.2c0.3,0.1,0.5,0.4,0.6,0.8
		c0.1,0.4,0.1,0.8,0,1.5c-0.1,0.5-0.2,0.9-0.4,1.3c-0.2,0.4-0.4,0.6-0.7,0.8C123.1,69,122.8,69.1,122.4,69.1z M123.1,67.5
		c0.2,0,0.3,0,0.4-0.1s0.2-0.2,0.3-0.4c0.1-0.2,0.1-0.3,0.1-0.6s-0.1-0.4-0.2-0.5s-0.3-0.2-0.5-0.2c-0.2,0-0.3,0-0.4,0.1
		s-0.2,0.2-0.3,0.4s-0.1,0.3-0.1,0.6s0.1,0.4,0.2,0.5C122.7,67.5,122.9,67.5,123.1,67.5z M123.6,69l0.1-0.6l0.3-1.7l0.2-1.7l0.1-0.6
		h1.9l-0.9,4.7H123.6z"/>
	<path class="st0" d="M128.5,69.1c-0.3,0-0.6-0.1-0.9-0.3s-0.5-0.4-0.7-0.7c-0.2-0.3-0.3-0.7-0.3-1.2c0-0.4,0.1-0.7,0.2-1.1
		c0.1-0.3,0.3-0.6,0.5-0.9s0.5-0.4,0.8-0.6c0.3-0.1,0.6-0.2,1-0.2c0.3,0,0.6,0.1,0.8,0.2c0.2,0.1,0.4,0.3,0.6,0.5
		c0.1,0.2,0.2,0.6,0.2,1c0,0.4,0,0.8-0.1,1.2c-0.1,0.4-0.2,0.7-0.4,1c-0.2,0.3-0.4,0.5-0.7,0.7S128.8,69.1,128.5,69.1z M129.2,67.5
		c0.2,0,0.3,0,0.4-0.1s0.2-0.2,0.3-0.4c0.1-0.2,0.1-0.3,0.1-0.6s-0.1-0.4-0.2-0.5s-0.3-0.2-0.5-0.2c-0.2,0-0.3,0-0.4,0.1
		s-0.2,0.2-0.3,0.4c-0.1,0.2-0.1,0.3-0.1,0.6s0.1,0.4,0.2,0.5C128.8,67.5,129,67.5,129.2,67.5z M129.6,69l0.1-0.6l0.3-1.7l0.2-1.7
		l0.5-2.3h1.9l-1.3,6.4H129.6z"/>
	<path class="st0" d="M134.5,69.1c-0.3,0-0.6-0.1-0.9-0.3s-0.5-0.4-0.7-0.7c-0.2-0.3-0.3-0.7-0.3-1.2c0-0.4,0.1-0.7,0.2-1.1
		c0.1-0.3,0.3-0.6,0.5-0.9s0.5-0.4,0.8-0.6c0.3-0.1,0.6-0.2,1-0.2c0.4,0,0.7,0.1,1,0.2c0.3,0.1,0.5,0.4,0.6,0.8
		c0.1,0.4,0.1,0.8,0,1.5c-0.1,0.5-0.2,0.9-0.4,1.3c-0.2,0.4-0.4,0.6-0.7,0.8C135.2,69,134.8,69.1,134.5,69.1z M135.2,67.5
		c0.2,0,0.3,0,0.4-0.1s0.2-0.2,0.3-0.4c0.1-0.2,0.1-0.3,0.1-0.6s-0.1-0.4-0.2-0.5s-0.3-0.2-0.5-0.2c-0.2,0-0.3,0-0.4,0.1
		s-0.2,0.2-0.3,0.4s-0.1,0.3-0.1,0.6s0.1,0.4,0.2,0.5C134.8,67.5,135,67.5,135.2,67.5z M135.7,69l0.1-0.6l0.3-1.7l0.2-1.7l0.1-0.6
		h1.9l-0.9,4.7H135.7z"/>
	<path class="st0" d="M139.3,69.1c-0.3,0-0.6-0.1-0.8-0.3c-0.2-0.2-0.3-0.4-0.3-0.7c0-0.4,0.1-0.7,0.4-0.9c0.2-0.2,0.5-0.3,0.9-0.3
		c0.3,0,0.6,0.1,0.8,0.3s0.3,0.4,0.3,0.7c0,0.2-0.1,0.4-0.2,0.6s-0.3,0.3-0.4,0.4S139.6,69.1,139.3,69.1z"/>
</g>
</svg>
