<?xml version="1.0" encoding="utf-8"?>
<!-- Generator: Adobe Illustrator 24.1.2, SVG Export Plug-In . SVG Version: 6.00 Build 0)  -->
<svg version="1.1" id="Layer_1" xmlns="http://www.w3.org/2000/svg" xmlns:xlink="http://www.w3.org/1999/xlink" x="0px" y="0px"
	 viewBox="0 0 1917.5 447.6" style="enable-background:new 0 0 1917.5 447.6;" xml:space="preserve">
<style type="text/css">
	.st0{fill:#F5C421;}
	.st1{fill:#F38523;}
	.st2{fill:#E93842;}
	.st3{fill:#E01B08;}
	.st4{fill:#1B2737;}
	.st5{fill:#1B120D;}
	.st6{fill:#03664A;}
	.st7{fill:#1CB2CD;}
	.st8{fill:#0E6808;}
	.st9{fill:#0E873A;}
	.st10{fill:#7A950A;}
	.st11{fill:#0E3601;}
	.st12{fill:#1C4501;}
	.st13{fill:#084408;}
	.st14{fill:#EB6703;}
	.st15{fill:#754E01;}
	.st16{fill:#C83217;}
	.st17{opacity:0.36;fill:#F38523;}
	.st18{fill:#FFFFFF;}
	.st19{fill:#07A0A0;}
	.st20{fill:#F6C322;}
</style>
<path class="st0" d="M148.8,187.9c0,0.1-0.1,0.1-0.1,0.2c-0.3,0.5-0.6,1-0.9,1.5c-0.3,0.5-0.6,1.1-0.9,1.6c-0.4,0.8-0.8,1.5-1.2,2.3
	c-0.2,0.4-0.4,0.9-0.6,1.3c-0.9,1.9-1.7,3.7-2.5,5.6c-0.3,0.8-0.6,1.6-0.9,2.4c-0.9,2.4-1.7,4.8-2.4,7c-0.2,0.5-0.3,1-0.5,1.5
	c-0.5,1.6-0.8,3.1-1.2,4.5c-0.1,0.4-0.2,0.8-0.3,1.2c0,0.1,0,0.1,0,0.2c-0.1,0.4-0.2,0.9-0.3,1.3c-0.1,0.5-0.2,0.9-0.3,1.4
	c-0.4,1.7-0.7,3.4-0.9,4.8c-0.1,0.4-0.1,0.7-0.2,1.1c-0.1,0.7-0.2,1.3-0.3,2c-0.1,0.3-0.1,0.6-0.1,0.9c0,0.3-0.1,0.6-0.1,0.8
	c-0.1,0.8-0.2,1.5-0.3,2.1c-0.2,1.3-0.9,7.6-0.8,16.8c0,0.4,0,0.7,0,1.1c0,1.1,0,2.3,0.1,3.5c0,0.6,0.1,1.3,0.1,2
	c0.1,1,0.1,2,0.2,3.1c-0.8,0.1-1.6,0.3-2.3,0.4c-0.3,0-0.7,0.1-1,0.1c-0.5,0.1-1,0.1-1.5,0.2c-0.4,0-0.8,0.1-1.3,0.1
	c-0.8,0.1-1.7,0.1-2.5,0.1c-0.8,0-1.7,0.1-2.5,0.1c-29.8,0-54.8-20.4-61.8-48c-9.8,5.8-20.9,9.8-32.6,11.6c0.1-1.1,0.3-2.1,0.4-3.2
	c2.7-21,6.4-49.9,25.6-81.5c0.6-0.9,1.3-2.2,2.3-3.6c0.2-0.3,0.4-0.6,0.7-1c0.3-0.5,0.7-1.1,1.1-1.7c0.3-0.4,0.5-0.8,0.8-1.2
	c0.1-0.2,0.3-0.4,0.4-0.6c1-1.4,2.1-3,3.3-4.6c0.2-0.3,0.4-0.6,0.6-0.8c0.3-0.4,0.7-0.9,1-1.3c0.2-0.3,0.4-0.6,0.7-0.9
	c0.4-0.5,0.7-0.9,1.1-1.4c1.7-2.1,3.5-4.3,5.5-6.6c0.5-0.6,1-1.1,1.5-1.7c0.5-0.6,1.1-1.2,1.7-1.8c1-1.2,2.1-2.3,3.3-3.5
	c1.2-1.2,2.4-2.5,3.7-3.8c1.1-1.1,2.3-2.3,3.5-3.4c1.4-1.3,2.8-2.6,4.3-3.9c1.4-1.3,2.9-2.5,4.4-3.7c0.8-0.6,1.5-1.3,2.3-1.9
	c-0.9,5.5-1.3,11.1-1.1,16.8c0.2,9.9,2,19.3,5.1,28.2c1.3,3.8,2.9,7.4,4.7,10.9C115,164.6,130.2,179.3,148.8,187.9z"/>
<path class="st0" d="M254.6,62.6c-12,21.4-14.4,45.7-8.5,67.7c-3.6,1.8-7.1,3.6-10.6,5.6c4.2,1.1,8.5,1.7,13,1.9
	c1.2,3.5,2.7,6.9,4.3,10.2c-6.8-1.6-16-3.1-26.5-3.1c-0.9,0-1.8,0-2.8,0c-0.9,0-1.8,0.1-2.8,0.1h-0.1c-0.2,0-0.5,0-0.7,0
	c-0.5,0-1,0.1-1.5,0.1c-0.8,0.1-1.5,0.1-2.3,0.2c-0.8,0.1-1.5,0.2-2.3,0.3c-0.8,0.1-1.5,0.2-2.3,0.3c-0.7,0.1-1.4,0.2-2,0.3
	c-1.1,0.2-2.1,0.4-3.2,0.6c-0.6,0.1-1.2,0.2-1.8,0.4c-0.8,0.2-1.5,0.3-2.3,0.5c-2.7,0.7-5.4,1.5-8.1,2.5c-0.4,0.2-0.9,0.3-1.3,0.5
	c-0.9,0.3-1.8,0.7-2.6,1c-0.4,0.2-0.8,0.3-1.2,0.5c-2,0.9-4,1.8-6,2.9c-2.7,1.4-5,2.8-7.1,4.2c-11.5-16.7-30.7-27.7-52.6-27.7
	c-5.7,0-11.1,0.7-16.3,2.1c0-0.7,0-1.4,0-2.1c0-14.8-3.5-28.8-9.7-41.2c6.2-4.9,13.1-9.8,20.8-14.4c0.9-0.5,1.8-1,2.6-1.5
	c0.8-0.5,1.6-0.9,2.5-1.4c1.5-0.8,3-1.6,4.5-2.4c0.6-0.3,1.1-0.6,1.6-0.8c0.2-0.1,0.4-0.2,0.7-0.3c0.5-0.3,1-0.5,1.5-0.7
	c0.6-0.3,1.3-0.6,1.9-0.9c0.3-0.2,0.7-0.3,1-0.5c0.6-0.3,1.3-0.6,1.9-0.9c0.7-0.3,1.4-0.6,2.1-0.9c1-0.5,2-0.9,3.1-1.3
	c0.8-0.3,1.6-0.7,2.5-1c0.9-0.3,1.7-0.7,2.5-1c0.8-0.3,1.7-0.6,2.5-0.9c0.8-0.3,1.5-0.6,2.3-0.8c1.7-0.6,3.4-1.2,5.1-1.7
	c0.8-0.3,1.6-0.5,2.4-0.8c0.8-0.2,1.5-0.5,2.2-0.7c0.1,0,0.1,0,0.2,0c0.8-0.2,1.6-0.5,2.4-0.7c0.7-0.2,1.4-0.4,2.1-0.6
	c0.2,0,0.4-0.1,0.6-0.2c0.7-0.2,1.3-0.3,2-0.5c4.8-1.2,9.3-2.1,13.7-2.9c0.6-0.1,1.1-0.2,1.7-0.3c0.7-0.1,1.4-0.2,2.1-0.3
	c1.5-0.2,3-0.5,4.5-0.6c0.5-0.1,1.1-0.1,1.6-0.2c0.7-0.1,1.3-0.2,1.9-0.2c1.2-0.1,2.4-0.3,3.6-0.4c1.2-0.1,2.3-0.2,3.4-0.3
	c1-0.1,2.1-0.2,3.1-0.2c0.6,0,1.2-0.1,1.8-0.1c0.5,0,1-0.1,1.5-0.1c0.1,0,0.2,0,0.3,0c0.9-0.1,1.8-0.1,2.6-0.1
	c2.2-0.1,4.2-0.2,6.1-0.2c0.6,0,1.1,0,1.7,0c15.8-0.4,30.4,0.8,43.6,3.1C258.8,55.6,256.6,59,254.6,62.6z"/>
<path class="st0" d="M384.4,120c-14.8,12.2-29.7,24.5-44.6,36.7c-9.5,7.8-19,15.6-28.5,23.4c-8.4-8.3-21.9-19.4-40.8-26.8
	c-1.6-0.6-3.3-1.2-5-1.8c3.4-5.7,6.1-11.8,8.2-18.1c11.3-4.5,21-12.1,28-21.9c-8.3,1.6-16.4,3.6-24.3,6.1c0.7-4.8,0.9-9.7,0.8-14.7
	c-0.5-18.8-6.6-36.2-16.7-50.5c21.6,3.7,39.1,9.9,51.3,15.2c6.5,2.8,11.5,5.4,14.8,7.2c1,0.5,1.8,1,2.4,1.3
	c10.5,5.9,19.6,12.2,27.5,18.5c6.5,5.1,12.1,10.2,16.9,15C378.3,113.3,381.6,116.8,384.4,120z"/>
<path class="st1" d="M384.4,220.6v179.8c-19.5,12.2-112.3,67.5-213.6,39.3c-0.1,0-0.3-0.1-0.4-0.1c-0.7-0.2-1.5-0.4-2.3-0.6
	c-22.4-38.3-47.7-98.1-31.6-160.7c0.2-0.6,0.3-1.2,0.5-1.9c1.5,7.3,3.8,15,7,22.5c1.1,2.7,2.4,5.3,3.8,7.9
	c5.9,10.9,14.2,21.2,25.8,29.5c27.4,19.4,59,17.4,69.4,16.7c20.5-1.3,36.4-7.6,46-12.3V220.6H384.4z"/>
<path class="st2" d="M148.8,187.9c0,0.1-0.1,0.1-0.1,0.2c-0.3,0.5-0.6,1-0.9,1.5c-0.3,0.5-0.6,1.1-0.9,1.6c-0.4,0.8-0.8,1.5-1.2,2.3
	c-0.2,0.4-0.4,0.9-0.6,1.3c-0.9,1.9-1.7,3.7-2.5,5.6c-0.3,0.8-0.6,1.6-0.9,2.4c-0.9,2.4-1.7,4.8-2.4,7c-0.2,0.5-0.3,1-0.5,1.5
	c-0.5,1.6-0.8,3.1-1.2,4.5c-0.1,0.4-0.2,0.8-0.3,1.2c0,0.1,0,0.1,0,0.2c-0.1,0.4-0.2,0.9-0.3,1.3c-0.1,0.5-0.2,0.9-0.3,1.4
	c-0.4,1.7-0.7,3.4-0.9,4.8c-0.1,0.4-0.1,0.7-0.2,1.1c-0.1,0.7-0.2,1.3-0.3,2c-0.1,0.3-0.1,0.6-0.1,0.9c0,0.3-0.1,0.6-0.1,0.8
	c-0.1,0.8-0.2,1.5-0.3,2.1c-0.2,1.3-0.9,7.6-0.8,16.8c0,0.4,0,0.7,0,1.1c0,1.1,0,2.3,0.1,3.5c0,0.6,0.1,1.3,0.1,2
	c0.1,1,0.1,2,0.2,3.1c-0.8,0.1-1.6,0.3-2.3,0.4c-0.3,0-0.7,0.1-1,0.1c-0.5,0.1-1,0.1-1.5,0.2c-0.4,0-0.8,0.1-1.3,0.1
	c-0.8,0.1-1.7,0.1-2.5,0.1c-0.8,0-1.7,0.1-2.5,0.1c-29.8,0-54.8-20.4-61.8-48c23.1-13.6,39.8-37,44.2-64.6
	C115,164.6,130.2,179.3,148.8,187.9z"/>
<path class="st3" d="M105.8,146.4c-4.5,27.5-21.1,50.9-44.2,64.6c-1.3-5-2-10.3-2-15.7c0-3.2,0.2-6.4,0.7-9.5
	c0.1-0.4,0.1-0.8,0.2-1.2c0.2-1,0.4-2,0.6-3c0.3-1.2,0.6-2.4,0.9-3.6c0.3-0.9,0.5-1.7,0.8-2.5c0.1-0.4,0.3-0.8,0.4-1.2
	c0.4-1.3,0.9-2.5,1.4-3.7c0.2-0.4,0.3-0.8,0.5-1.1c0.2-0.4,0.3-0.7,0.5-1c1.5-3.2,3.2-6.2,5.2-9.1c0.2-0.3,0.5-0.7,0.7-1
	c0.3-0.4,0.5-0.7,0.8-1c0.3-0.3,0.5-0.7,0.8-1c1.6-2,3.3-4,5.1-5.8c0.3-0.3,0.5-0.5,0.8-0.8c1.4-1.4,2.9-2.7,4.5-4
	c0.3-0.3,0.6-0.5,0.9-0.7c0.9-0.7,1.7-1.3,2.6-1.9c0.3-0.2,0.5-0.4,0.8-0.5c2.1-1.5,4.4-2.8,6.7-4c0.7-0.4,1.4-0.7,2.2-1.1
	c1.1-0.5,2.2-1,3.3-1.4c0.4-0.2,0.8-0.3,1.1-0.4C102.4,139.2,104,142.9,105.8,146.4z"/>
<path class="st1" d="M101.1,135.5c-0.4,0.1-0.8,0.3-1.1,0.4c-1.1,0.4-2.2,0.9-3.3,1.4c-0.7,0.3-1.5,0.7-2.2,1.1
	c-2.3,1.2-4.6,2.5-6.7,4c-0.3,0.2-0.5,0.3-0.8,0.5c-0.9,0.6-1.8,1.2-2.6,1.9c-0.3,0.2-0.6,0.5-0.9,0.7c-1.6,1.3-3.1,2.6-4.5,4
	c-0.3,0.3-0.5,0.5-0.8,0.8c-1.8,1.8-3.5,3.8-5.1,5.8c-0.3,0.3-0.5,0.7-0.8,1c-0.3,0.3-0.5,0.7-0.8,1c-0.3,0.3-0.5,0.7-0.7,1
	c-2,2.9-3.7,5.9-5.2,9.1c-0.2,0.3-0.3,0.7-0.5,1c-0.2,0.4-0.3,0.8-0.5,1.1c-0.5,1.2-1,2.4-1.4,3.7c-0.1,0.4-0.3,0.8-0.4,1.2
	c-0.3,0.8-0.5,1.7-0.8,2.5c-0.3,1.2-0.6,2.4-0.9,3.6c-0.2,1-0.4,2-0.6,3c-0.1,0.4-0.1,0.8-0.2,1.2c-0.5,3.1-0.7,6.3-0.7,9.5
	c0,5.4,0.7,10.7,2,15.7c-9.8,5.8-20.9,9.8-32.6,11.6c0.1-1.1,0.3-2.1,0.4-3.2c2.7-21,6.4-49.9,25.6-81.5c0.6-0.9,1.3-2.2,2.3-3.6
	c0.2-0.3,0.4-0.6,0.7-1c0.3-0.5,0.7-1.1,1.1-1.7c0.3-0.4,0.5-0.8,0.8-1.2c0.1-0.2,0.3-0.4,0.4-0.6c1-1.4,2.1-3,3.3-4.6
	c0.2-0.3,0.4-0.6,0.6-0.8c0.3-0.4,0.7-0.9,1-1.3c0.2-0.3,0.4-0.6,0.7-0.9c0.4-0.5,0.7-0.9,1.1-1.4c1.7-2.1,3.5-4.3,5.5-6.6
	c0.5-0.6,1-1.1,1.5-1.7c0.5-0.6,1.1-1.2,1.7-1.8c1-1.2,2.1-2.3,3.3-3.5c1.2-1.2,2.4-2.5,3.7-3.8c1.1-1.1,2.3-2.3,3.5-3.4
	c1.4-1.3,2.8-2.6,4.3-3.9c1.4-1.3,2.9-2.5,4.4-3.7c0.8-0.6,1.5-1.3,2.3-1.9c-0.9,5.5-1.3,11.1-1.1,16.8
	C96.2,117.2,98,126.6,101.1,135.5z"/>
<path class="st4" d="M175.9,159.2c-4,2.6-6.9,5-8.8,6.6c-0.6,0.5-1.1,1-1.7,1.5c-0.5,0.5-1.1,1-1.6,1.4c0,0,0,0-0.1,0.1
	c-0.3,0.3-0.7,0.6-1,0.9c-0.3,0.3-0.6,0.6-0.8,0.8c-0.3,0.3-0.6,0.6-0.8,0.9c-0.3,0.3-0.6,0.7-0.9,1c-0.1,0.1-0.1,0.1-0.2,0.2
	c-0.4,0.4-0.7,0.8-1.1,1.2c-0.4,0.5-0.8,0.9-1.2,1.4c-0.7,0.8-1.4,1.6-2,2.5c-0.2,0.3-0.5,0.6-0.7,0.9c-0.2,0.3-0.4,0.6-0.6,0.9
	c-0.4,0.5-0.7,0.9-1,1.4c-0.2,0.2-0.3,0.5-0.5,0.7c-0.8,1.1-1.5,2.1-2.2,3.2c-0.4,0.5-0.7,1.1-1,1.6c-0.3,0.6-0.7,1.1-1,1.6
	c-18.5-8.6-33.8-23.3-43-41.5c0.7-4.2,1.1-8.4,1.2-12.8c5.2-1.4,10.7-2.1,16.3-2.1C145.1,131.5,164.4,142.4,175.9,159.2z"/>
<path class="st5" d="M107,133.6c-0.1,4.3-0.5,8.6-1.2,12.8c-1.8-3.5-3.4-7.1-4.7-10.9c0.5-0.2,1-0.3,1.4-0.5
	C104,134.4,105.5,134,107,133.6z"/>
<path class="st6" d="M107,131.5c0,0.7,0,1.4,0,2.1c-1.5,0.4-3,0.8-4.4,1.3c-0.5,0.2-1,0.3-1.4,0.5c-3.1-8.8-4.9-18.3-5.1-28.2
	c-0.1-5.7,0.3-11.4,1.1-16.8c0.1,0,0.1-0.1,0.2-0.1C103.5,102.7,107,116.7,107,131.5z"/>
<path class="st7" d="M254.6,62.6c-12,21.4-14.4,45.7-8.5,67.7c-3.6,1.8-7.1,3.6-10.6,5.6c4.2,1.1,8.5,1.7,13,1.9
	c1.2,3.5,2.7,6.9,4.3,10.2c-6.8-1.6-16-3.1-26.5-3.1c-0.9,0-1.8,0-2.8,0c-0.9,0-1.8,0.1-2.8,0.1h-0.1c-0.2,0-0.5,0-0.7,0
	c-0.5,0-1,0.1-1.5,0.1c-0.8,0.1-1.5,0.1-2.3,0.2c-0.8,0.1-1.5,0.1-2.3,0.3c-0.8,0.1-1.5,0.2-2.3,0.3c-0.7,0.1-1.4,0.2-2,0.3
	c-1.1,0.2-2.1,0.4-3.2,0.6c-0.6,0.1-1.2,0.2-1.8,0.4c-0.8,0.2-1.5,0.3-2.3,0.5c-2.7,0.7-5.4,1.5-8.1,2.5c-0.4,0.2-0.9,0.3-1.3,0.5
	c-0.9,0.3-1.8,0.7-2.6,1c-0.4,0.2-0.8,0.3-1.2,0.5c-2,0.9-4,1.8-6,2.9c-2.7,1.4-5,2.8-7.1,4.2c-11.5-16.7-30.7-27.7-52.6-27.7
	c-5.7,0-11.1,0.7-16.3,2.1c0-0.7,0-1.4,0-2.1c0-14.8-3.5-28.8-9.7-41.2c6.2-4.9,13.1-9.8,20.8-14.4c0.9-0.5,1.8-1,2.6-1.5
	c0.8-0.5,1.6-0.9,2.5-1.4c1.5-0.8,3-1.6,4.5-2.4c0.6-0.3,1.1-0.6,1.6-0.8c0.2-0.1,0.4-0.2,0.7-0.3c0.5-0.3,1-0.5,1.5-0.7
	c0.6-0.3,1.3-0.6,1.9-0.9c0.3-0.2,0.7-0.3,1-0.5c0.6-0.3,1.3-0.6,1.9-0.9c0.7-0.3,1.4-0.6,2.1-0.9c1-0.5,2-0.9,3.1-1.3
	c0.8-0.3,1.6-0.7,2.5-1c0.9-0.3,1.7-0.7,2.5-1c0.8-0.3,1.7-0.6,2.5-0.9c0.8-0.3,1.5-0.6,2.3-0.8c1.7-0.6,3.4-1.2,5.1-1.7
	c0.8-0.3,1.6-0.5,2.4-0.8c0.8-0.2,1.5-0.5,2.2-0.7c0.1,0,0.1,0,0.2,0c0.8-0.2,1.6-0.5,2.4-0.7c0.7-0.2,1.4-0.4,2.1-0.6
	c0.2,0,0.4-0.1,0.6-0.2c0.7-0.2,1.3-0.3,2-0.5c4.8-1.2,9.3-2.1,13.7-2.9c0.6-0.1,1.1-0.2,1.7-0.3c0.7-0.1,1.4-0.2,2.1-0.3
	c1.5-0.2,3-0.5,4.5-0.6c0.5-0.1,1.1-0.1,1.6-0.2c0.7-0.1,1.3-0.2,1.9-0.2c1.2-0.1,2.4-0.3,3.6-0.4c1.2-0.1,2.3-0.2,3.4-0.3
	c1-0.1,2.1-0.2,3.1-0.2c0.6,0,1.2-0.1,1.8-0.1c0.5,0,1-0.1,1.5-0.1c0.1,0,0.2,0,0.3,0c0.9-0.1,1.8-0.1,2.6-0.1
	c2.2-0.1,4.2-0.2,6.1-0.2c0.6,0,1.1,0,1.7,0c15.8-0.4,30.4,0.8,43.6,3.1C258.8,55.6,256.6,59,254.6,62.6z"/>
<path class="st0" d="M384.4,120c-14.8,12.2-29.7,24.5-44.6,36.7c-9.8-4.7-21.4-8.3-34.5-8.9c-3-0.1-5.8-0.1-8.3,0
	c-4.7,0.2-8.5,0.8-10.9,1.2c-5.5,1-10.8,2.5-15.6,4.4c-1.6-0.6-3.3-1.2-5-1.8c3.4-5.7,6.1-11.8,8.2-18.1c11.3-4.5,21-12.1,28-21.9
	c-8.3,1.6-16.4,3.6-24.3,6.1c0.7-4.8,0.9-9.7,0.8-14.7c-0.5-18.8-6.6-36.2-16.7-50.5c21.6,3.7,39.1,9.9,51.3,15.2
	c6.5,2.8,11.5,5.4,14.8,7.2c1.6-9.3,9.6-16.3,19.3-16.3c10.8,0,19.6,8.8,19.6,19.6c0,6.9-3.6,13-9,16.5c6.5,5.1,12.1,10.2,16.9,15
	C378.3,113.3,381.6,116.8,384.4,120z"/>
<path class="st8" d="M277.5,117.7c-10.9,3.4-21.4,7.6-31.4,12.6c-5.8-22-3.4-46.2,8.5-67.7c2-3.6,4.2-7,6.6-10.2
	c0.1,0,0.3,0,0.4,0.1c10.1,14.3,16.3,31.7,16.7,50.5C278.4,107.9,278.2,112.9,277.5,117.7z"/>
<path class="st9" d="M254.6,62.6c-12,21.4-14.4,45.7-8.5,67.7c-3.6,1.8-7.1,3.6-10.6,5.6c-26.9-6.9-46.8-31.4-46.8-60.4
	c0-8.7,1.8-17,5-24.5c1.2-0.1,2.4-0.3,3.6-0.4c1.2-0.1,2.3-0.2,3.4-0.3c1-0.1,2.1-0.2,3.1-0.2c0.6,0,1.2-0.1,1.8-0.1
	c0.5,0,1-0.1,1.5-0.1c0.1,0,0.2,0,0.3,0c0.9-0.1,1.8-0.1,2.6-0.1c2.2-0.1,4.2-0.2,6.1-0.2c0.6,0,1.1,0,1.7,0
	c15.8-0.4,30.4,0.8,43.6,3.1C258.8,55.6,256.6,59,254.6,62.6z"/>
<path class="st10" d="M313.4,75.4c0,13.5-4.3,26-11.5,36.2c-8.3,1.6-16.4,3.6-24.3,6.1c0.7-4.8,0.9-9.7,0.8-14.7
	c-0.5-18.8-6.6-36.2-16.7-50.5c21.6,3.7,39.1,9.9,51.3,15.2C313.2,70.2,313.4,72.7,313.4,75.4z"/>
<path class="st11" d="M277.5,117.7c-0.8,5.4-2,10.7-3.6,15.8c-7.1,2.8-14.8,4.3-22.9,4.3c-0.9,0-1.7,0-2.6-0.1
	c-0.9-2.5-1.7-5-2.3-7.5C256.1,125.3,266.6,121.1,277.5,117.7z"/>
<path class="st12" d="M273.9,133.4c-2.1,6.4-4.8,12.5-8.2,18.1c-0.8-0.3-1.7-0.6-2.5-0.8c-2-0.6-5.6-1.8-10.4-2.9
	c-1.7-3.3-3.1-6.7-4.3-10.2c0.9,0,1.7,0.1,2.6,0.1C259.1,137.8,266.8,136.2,273.9,133.4z"/>
<path class="st13" d="M248.4,137.7c-4.5-0.2-8.8-0.8-13-1.9c3.5-2,7-3.8,10.6-5.6C246.7,132.7,247.5,135.2,248.4,137.7z"/>
<path class="st14" d="M252.7,147.9c-6.8-1.6-16-3.1-26.5-3.1c-0.9,0-1.8,0-2.8,0c-0.9,0-1.8,0.1-2.8,0.1h-0.1
	c4.8-3.2,9.8-6.2,14.8-9.1c4.2,1.1,8.5,1.7,13,1.9C249.6,141.2,251.1,144.6,252.7,147.9z"/>
<path class="st15" d="M301.8,111.5c-7,9.8-16.7,17.4-28,21.9c1.7-5.1,2.9-10.3,3.6-15.8C285.4,115.2,293.5,113.1,301.8,111.5z"/>
<path class="st14" d="M384.4,120c-14.8,12.2-29.7,24.5-44.6,36.7c-9.5,7.8-19,15.6-28.5,23.4c-8.4-8.3-21.9-19.4-40.8-26.8
	c-1.6-0.6-3.3-1.2-5-1.8c3.4-5.7,6.1-11.8,8.2-18.1c11.3-4.5,21-12.1,28-21.9c13.7-2.6,27.8-4,42.3-4c10.3,0,20.5,0.7,30.4,2.1
	C378.3,113.3,381.6,116.8,384.4,120z"/>
<path class="st2" d="M103.1,347.8c0,17.5-9.7,32.6-24,40.5c-0.4-0.4-0.8-0.8-1.2-1.2c-5.6-5.9-29.7-32-42.8-74.5
	c-0.5-1.5-0.9-3-1.3-4.5c6.8-4,14.8-6.3,23.3-6.3C82.5,301.7,103.1,322.3,103.1,347.8z"/>
<path class="st0" d="M366.7,78.1c0,6.9-3.6,13-9,16.5c-3.1,2-6.7,3.1-10.6,3.1c-10.8,0-19.6-8.8-19.6-19.6c0-1.1,0.1-2.2,0.3-3.3
	c1.6-9.3,9.6-16.3,19.3-16.3C357.9,58.5,366.7,67.3,366.7,78.1z"/>
<circle class="st0" cx="397.4" cy="36.9" r="36.9"/>
<circle class="st2" cx="27.3" cy="406.4" r="20.4"/>
<path class="st16" d="M296.3,325.7c0,43.3-35.1,78.5-78.5,78.5c-43.3,0-78.5-35.1-78.5-78.5c0-9.4,1.7-18.5,4.7-26.8
	c1.1,2.7,2.4,5.3,3.8,7.9c5.9,10.9,14.2,21.2,25.8,29.5c27.4,19.4,59,17.4,69.4,16.7c20.5-1.3,36.4-7.6,46-12.3v-47.8
	C293.7,302.9,296.3,314,296.3,325.7z"/>
<polygon class="st2" points="29.2,245.9 18.4,256.7 7.6,245.9 0,253.5 10.8,264.3 0,275.1 7.6,282.8 18.4,272 29.2,282.8 
	36.9,275.1 26.1,264.3 36.9,253.5 "/>
<g>
	<path class="st1" d="M437.7,339.5c-13.3,0-24.1-10.8-24.1-24.1s10.8-24.1,24.1-24.1s24.1,10.8,24.1,24.1S451,339.5,437.7,339.5z
		 M437.7,297.2c-10,0-18.1,8.1-18.1,18.1s8.1,18.1,18.1,18.1s18.1-8.1,18.1-18.1S447.7,297.2,437.7,297.2z"/>
</g>
<path class="st7" d="M152.7,17.4c-0.6-0.6-1.6-0.8-2.4-0.6l-26.7,7.9l2.5-10.4c0.2-0.9-0.1-1.8-0.7-2.4c-0.7-0.6-1.6-0.8-2.4-0.6
	l-30.6,9c-0.9,0.3-1.5,1-1.7,1.8c-0.2,0.9,0.1,1.8,0.7,2.4l23.1,22c0.5,0.4,1.1,0.7,1.7,0.7c0.2,0,0.5,0,0.7-0.1
	c0.9-0.3,1.5-0.9,1.7-1.8l3-12.4l20.2,19.2c0.5,0.5,1.1,0.7,1.7,0.7c0.2,0,0.5,0,0.7-0.1c0.9-0.3,1.5-0.9,1.7-1.8l7.5-31
	C153.6,19,153.3,18.1,152.7,17.4z M114.7,39.9l-16.9-16l22.3-6.6L114.7,39.9z M142.1,45.5l-16.9-16l22.3-6.6L142.1,45.5z"/>
<g>
	<rect x="934.3" y="115.6" class="st17" width="0.5" height="45"/>
	<rect x="934.3" y="223.6" class="st17" width="0.5" height="45"/>
	<g>
		<path class="st18" d="M1047.6,115.6H934.8V325h57.4v-56.4h55.3c42.3,0,76.5-34.3,76.5-76.5
			C1124.1,149.8,1089.8,115.6,1047.6,115.6z M1035.2,223.6h-42.9v-63.1h42.9c8.7,0,16.6,3.5,22.3,9.3c5.7,5.7,9.3,13.6,9.3,22.3
			C1066.7,209.5,1052.6,223.6,1035.2,223.6z"/>
		<path class="st18" d="M1328.2,192.1c0-42.3-34.3-76.5-76.5-76.5h-112.7h-0.5v45h0.5v63.1h-0.5v45h0.5V325h57.4v-56.4h33.6
			l38.3,56.4h63l-44.2-65C1311.5,247.2,1328.2,221.6,1328.2,192.1z M1239.2,223.6h-42.9v-63.1h42.9c8.7,0,16.6,3.5,22.3,9.3
			c5.7,5.7,9.3,13.6,9.3,22.3C1270.8,209.5,1256.7,223.6,1239.2,223.6z"/>
		<rect x="1343.7" y="115.6" class="st18" width="57.4" height="209.4"/>
		<polygon class="st18" points="1633.8,115.6 1633.8,161.2 1699.5,161.2 1699.5,325 1756.9,325 1756.9,161.2 1822.5,161.2 
			1822.5,115.6 		"/>
		<polygon class="st18" points="1569.9,229.3 1485.9,126.4 1477,115.6 1428.5,115.6 1428.5,325 1485.9,325 1485.9,212.3 
			1569.9,313.7 1579.2,325 1627.3,325 1627.3,115.6 1569.9,115.6 		"/>
	</g>
	<circle class="st2" cx="1830.5" cy="364.3" r="11.4"/>
	<circle class="st2" cx="1868.8" cy="348.3" r="15.8"/>
	<circle class="st19" cx="1890.5" cy="328.3" r="13.7"/>
	<circle class="st1" cx="1892.9" cy="383.8" r="15.2"/>
	<circle class="st20" cx="1890.5" cy="293.2" r="23.5"/>
	<circle class="st20" cx="1908.6" cy="272.7" r="9"/>
	<circle class="st19" cx="1910.6" cy="315.5" r="4.1"/>
	<circle class="st2" cx="1816.2" cy="370.1" r="5"/>
	<circle class="st2" cx="1798.3" cy="369.3" r="3.7"/>
	<g>
		<rect x="865.4" y="182" class="st1" width="25.9" height="143.8"/>
		<path class="st1" d="M559.3,168.8c28.1-16.2,65.9-11.2,92.6,13.2c5.2-5.2,10.3-10.5,15.5-15.7c-2.8-3.4-7.1-8.1-13.1-12.8
			c-30.1-23.2-67.5-17.2-75.1-16.1c-9.7,1.5-33.2,5.6-54.2,25c-4.6,4.3-32.5,30.9-31.1,72.7c1.1,33.8,20.6,59.7,39.6,73.7
			c29.1,21.5,70.1,24.7,108,9.2c8.8-3.6,17.5-8.2,25.9-13.9v-73.9h-25.9v59.7c-33.9,19.6-73.5,16.6-96.9-5.2
			c-24.3-22.7-21.6-57.1-21.4-59.3C523.4,223.6,527.5,187.1,559.3,168.8z"/>
		<path class="st1" d="M806.5,262.8c0,5-0.7,10.1-2.4,14.8c-1.6,4.6-4.3,9.8-8.7,14.6c-10.5,11.5-29.3,18.7-46.7,11.6
			c-7.2-2.9-12.3-7.5-16.1-12.4c-6-7.9-8.9-17.7-8.9-27.6V182h-25.9v94.3c1.9,18.2,11.6,34.2,25.9,44.2c4.5,3.1,9.4,5.7,14.7,7.5
			c24.2,8.4,51.7,0.3,68.1-20.3v18.1h25.9V182h-25.9V262.8z"/>
		<path class="st1" d="M878.3,160c9.9,0,17.8-8,17.8-17.8s-8-17.8-17.8-17.8c-9.9,0-17.8,8-17.8,17.8S868.5,160,878.3,160z"/>
		<path class="st1" d="M791.5,160c9.9,0,17.8-8,17.8-17.8s-8-17.8-17.8-17.8c-9.9,0-17.8,8-17.8,17.8S781.6,160,791.5,160z"/>
		<path class="st1" d="M741.1,160c9.9,0,17.8-8,17.8-17.8s-8-17.8-17.8-17.8c-9.9,0-17.8,8-17.8,17.8S731.3,160,741.1,160z"/>
	</g>
	<circle class="st1" cx="1837.9" cy="291.5" r="52.6"/>
</g>
</svg>
